<svg width="24" height="24" viewBox="0 0 24 24" fill="none" xmlns="http://www.w3.org/2000/svg">
<g clip-path="url(#clip0_14_27)">
<path d="M23.8372 7.41353C23.6054 7.19477 23.3181 7.05549 23.0123 7.01355C22.7064 6.97161 22.3959 7.02891 22.1205 7.17812L17.5822 9.61353L13.7115 2.68749C13.5728 2.43967 13.377 2.23465 13.143 2.09233C12.909 1.95 12.6448 1.87521 12.3761 1.87521C12.1073 1.87521 11.8431 1.95 11.6092 2.09233C11.3752 2.23465 11.1794 2.43967 11.0407 2.68749L7.17001 9.61353L2.63066 7.17916C2.35554 7.03122 2.04591 6.97423 1.74077 7.01538C1.43562 7.05653 1.14861 7.19397 0.915904 7.41039C0.683193 7.62681 0.515189 7.91253 0.433056 8.23155C0.350923 8.55057 0.358335 8.88862 0.45436 9.20312L4.03475 21.0104C4.08867 21.1883 4.17901 21.3509 4.29909 21.4862C4.41917 21.6215 4.56594 21.726 4.72856 21.7921C4.89118 21.8582 5.06551 21.8841 5.23869 21.868C5.41186 21.8519 5.57947 21.7941 5.72914 21.699C5.75237 21.6844 8.15413 20.2083 12.3742 20.2083C16.5942 20.2083 18.9959 21.6865 19.0143 21.6979C19.164 21.7943 19.3319 21.8532 19.5056 21.8701C19.6793 21.8871 19.8544 21.8617 20.0177 21.7958C20.181 21.73 20.3285 21.6254 20.4491 21.4897C20.5698 21.3541 20.6605 21.191 20.7145 21.0125L24.2949 9.21145C24.3937 8.89679 24.403 8.55751 24.3214 8.23716C24.2399 7.91681 24.0712 7.63 23.8372 7.41353ZM18.9088 18.9083C17.617 18.375 15.3933 17.7083 12.3742 17.7083C9.35501 17.7083 7.1313 18.3771 5.83946 18.9104L3.22674 10.2948L6.76165 12.1875C7.11292 12.3744 7.51651 12.4127 7.89273 12.2948C8.26895 12.177 8.59046 11.9116 8.79376 11.551L12.3742 5.14582L15.9545 11.5521C16.158 11.9125 16.4796 12.1776 16.8558 12.2953C17.232 12.4129 17.6355 12.3745 17.9867 12.1875L21.5206 10.2917L18.9088 18.9083ZM17.0054 15.6792C16.9631 15.9742 16.8242 16.2431 16.6137 16.4374C16.4032 16.6317 16.1351 16.7385 15.8578 16.7385C15.7979 16.7383 15.738 16.7334 15.6788 16.724C13.4868 16.3684 11.2577 16.3684 9.06568 16.724C8.7613 16.7745 8.45073 16.6928 8.20229 16.4969C7.95386 16.301 7.7879 16.0068 7.74093 15.6792C7.69397 15.3515 7.76984 15.0172 7.95186 14.7498C8.13388 14.4823 8.40713 14.3037 8.71151 14.2531C11.1382 13.8587 13.6062 13.8587 16.0329 14.2531C16.1838 14.2779 16.3287 14.3345 16.4592 14.4196C16.5898 14.5047 16.7035 14.6167 16.7938 14.7491C16.8841 14.8816 16.9493 15.0319 16.9856 15.1915C17.0219 15.351 17.0287 15.5168 17.0054 15.6792Z" fill="black"/>
</g>
<defs>
<clipPath id="clip0_14_27">
<rect width="24" height="24" fill="white"/>
</clipPath>
</defs>
</svg>
