<svg width="14" height="13" viewBox="0 0 14 13" fill="none" xmlns="http://www.w3.org/2000/svg">
<path d="M11.6182 8.38455C11.6766 8.80011 11.6528 9.18734 11.581 9.51046L13.5112 9.18879L11.6182 8.38455Z" fill="#99671C"/>
<path d="M11.6242 8.25354C11.6826 8.6691 11.6589 9.05632 11.5871 9.37944C11.303 10.6579 9.5134 12.0619 6.43998 11.8185C6.03335 11.7863 5.60424 11.7253 5.15318 11.6313C4.25141 11.4435 3.50763 11.1327 2.90134 10.7524C0.912191 9.50461 0.592001 8.18317 0.649483 7.21809C0.706966 6.253 1.1169 5.35399 1.93625 4.83269C2.20087 4.66433 2.51857 4.51893 2.90134 4.41035C3.55174 4.22585 4.39 4.14768 5.4749 4.24388C5.68038 4.2621 5.89471 4.28657 6.11829 4.31777C6.27456 4.33957 6.26843 4.68288 6.43387 4.71141C7.10352 4.82687 7.69029 4.9821 8.20324 5.1676C8.43213 5.25038 8.81325 5.02095 9.01354 5.11494C10.7931 5.94995 11.4755 7.19386 11.6242 8.25354Z" fill="url(#paint0_linear_39_218)"/>
<path d="M7.09488 1.64935C7.89912 0.684268 9.08254 0.111252 10.151 0.52342C11.2194 0.935588 11.2194 2.38322 10.4152 3.50915C9.61095 4.63508 8.38166 4.83993 8.38166 4.83993C7.86872 4.65443 7.28195 4.49919 6.6123 4.38374C6.44686 4.35521 6.28607 4.33013 6.1298 4.30832C5.90622 4.27713 5.69189 4.25265 5.48641 4.23443C5.48641 4.23443 3.71709 3.57952 3.55624 2.29274C3.39539 1.00596 4.36045 0.201725 5.48641 0.362573C6.61237 0.52342 7.09488 1.64935 7.09488 1.64935Z" fill="white"/>
<path d="M6.11221 4.68506C7.39899 6.69067 5.62967 10.0685 2.89526 10.6371M9.00747 5.1676C10.1334 7.50197 8.68577 10.7709 6.11221 11.7623" stroke="#875B19" stroke-width="0.965085" stroke-linecap="round" stroke-linejoin="round"/>
<path d="M0.80423 7.90202C0.80423 7.90202 0.80423 8.06286 1.28677 8.06286C1.76931 8.06286 2.09101 7.58032 2.09101 7.58032" stroke="black" stroke-width="0.965085" stroke-linecap="round" stroke-linejoin="round"/>
<path d="M6.59475 4.8459C6.59475 4.8459 6.3305 2.66441 7.13474 1.69933M6.59475 4.8459C7.2644 4.96136 8.42152 4.8899 8.42152 4.8899M6.59475 4.8459C6.42931 4.81738 6.75102 4.8677 6.59475 4.8459ZM6.59475 4.8459C6.37117 4.81471 5.95136 4.52421 5.46881 4.36336M11.6384 9.41997C11.7102 9.09685 11.734 8.70963 11.6756 8.29407M11.6384 9.41997L13.5686 9.0983L11.6756 8.29407M11.6384 9.41997C11.3543 10.6984 9.56477 12.1024 6.49135 11.859C6.08471 11.8269 5.65561 11.7658 5.20454 11.6718C4.30277 11.484 3.55899 11.1732 2.9527 10.7929C0.963552 9.54514 0.643362 8.2237 0.700845 7.25861C0.758327 6.29353 1.16826 5.39452 1.98761 4.87322M11.6756 8.29407C11.5268 7.23439 10.8444 5.99047 9.0649 5.15547C8.86461 5.06148 8.42152 4.8899 8.42152 4.8899M7.13474 1.69933C7.93897 0.73424 9.12239 0.161225 10.1908 0.573393C11.2593 0.985561 11.2593 2.43319 10.455 3.55912C9.6508 4.68506 8.42152 4.8899 8.42152 4.8899M7.13474 1.69933C7.13474 1.69933 6.65222 0.573393 5.52626 0.412545C4.4003 0.251698 3.43524 1.05593 3.59609 2.34271C3.75694 3.62949 5.46881 4.36336 5.46881 4.36336M5.46881 4.36336C4.98627 4.20251 3.6031 4.26638 2.9527 4.45088M2.9527 4.45088C2.96308 3.51538 2.73438 2.75488 1.76929 2.11149M2.9527 4.45088C2.56993 4.55946 2.25223 4.70486 1.98761 4.87322M1.98761 4.87322C1.88746 4.15703 1.61574 3.77802 0.700833 3.14695" stroke="#442F11" stroke-width="0.804238" stroke-linecap="round" stroke-linejoin="round"/>
<circle cx="3.21694" cy="6.13269" r="0.64339" fill="black"/>
<circle cx="1.76932" cy="2.11149" r="0.482543" fill="#875B19"/>
<circle cx="0.482543" cy="3.07658" r="0.482543" fill="#875B19"/>
<defs>
<linearGradient id="paint0_linear_39_218" x1="6.59476" y1="9.51048" x2="6.11222" y2="11.7623" gradientUnits="userSpaceOnUse">
<stop stop-color="#FFCE4E"/>
<stop offset="1" stop-color="#AE8A43"/>
</linearGradient>
</defs>
</svg>
