<svg width="80" height="83" viewBox="0 0 80 83" fill="none" xmlns="http://www.w3.org/2000/svg">
<path d="M69.9766 57.0898C70.3603 59.8224 70.2043 62.3687 69.7321 64.4935C67.8639 72.9003 56.0963 82.1323 35.8862 80.5322C33.2123 80.3205 27.4245 79.3012 27.4245 79.3012C27.4245 79.3012 17.8254 76.3514 13.6346 72.8211C9.44389 69.2908 5.1731 64.2255 5.1731 55.898C5.1731 47.5706 9.4039 41.0903 12.6169 37.9173C15.8298 34.7442 22.0962 32.6288 22.0962 32.6288C27.3846 31.5711 35.4337 31.366 36.9039 31.5711C41.3073 32.3303 45.2056 33.4851 48.5785 34.7049C50.0837 35.2492 51.4922 35.8331 52.8093 36.4512C64.5111 41.942 68.9983 50.1217 69.9766 57.0898Z" fill="url(#paint0_linear_17_858)"/>
<path d="M53.8269 37.8461C61.2308 53.1964 58.0577 69.5769 46.4231 78.0385" stroke="#875B19" stroke-width="6.34615" stroke-linecap="round" stroke-linejoin="round"/>
<path d="M39.135 12.5956C44.4234 6.24949 52.2053 2.48149 59.2311 5.1918C66.2569 7.90211 66.2569 17.4214 60.9685 24.8252C55.68 32.2291 47.5965 33.5761 47.5965 33.5761C44.2235 32.3563 40.3253 31.2015 35.9219 30.4423C34.4517 30.2372 26.4026 30.4423 21.1142 31.5C21.1142 31.5 16.9234 25.2879 15.8658 16.8264C14.8081 8.36484 21.154 3.07642 28.5581 4.13411C35.9621 5.1918 39.135 12.5956 39.135 12.5956Z" fill="white"/>
<path d="M35.8461 30.4423C35.8461 30.4423 33.7708 18.9418 39.0593 12.5956M35.8461 30.4423C40.7354 31.1245 44.1478 32.3563 47.5208 33.5761M35.8461 30.4423C30.9569 29.7602 28.4423 29.3846 21.0384 31.5M68.6744 63.3646C69.1465 61.2399 69.3025 58.6936 68.9189 55.961M68.6744 63.3646L76.0384 61.1154L68.9189 55.961M68.6744 63.3646C66.8062 71.7715 55.0385 81.0035 34.8285 79.4034C32.1546 79.1917 26.3668 78.1724 26.3668 78.1724C26.3668 78.1724 16.7676 75.2226 12.5769 71.6923C8.38615 68.162 4.11536 63.0967 4.11536 54.7692C4.11536 46.4418 8.34616 39.9615 11.5591 36.7885C14.7721 33.6154 21.0384 31.5 21.0384 31.5M68.9189 55.961C67.9406 48.9928 63.4534 40.8132 51.7516 35.3223C50.4345 34.7043 49.026 34.1204 47.5208 33.5761M39.0593 12.5956C44.3477 6.24949 52.1296 2.48149 59.1554 5.1918C66.1812 7.90211 66.1812 17.4214 60.8927 24.8252C55.6043 32.2291 47.5208 33.5761 47.5208 33.5761M39.0593 12.5956C39.0593 12.5956 35.8864 5.1918 28.4823 4.13411C21.0783 3.07642 14.7323 8.36484 15.79 16.8264C16.8477 25.2879 21.0384 31.5 21.0384 31.5" stroke="#442F11" stroke-width="6.34615" stroke-linecap="round" stroke-linejoin="round"/>
<path d="M28.4423 35.7308C25.2692 33.6154 25.2691 23.0384 26.3269 19.8654M40.0769 36.7884C37.9615 33.6154 39.0192 26.2115 42.9667 23.0384" stroke="black" stroke-width="4.23077" stroke-linecap="round"/>
<circle cx="26.3269" cy="18.8077" r="4.23077" fill="black"/>
<circle cx="45.3654" cy="20.9231" r="4.23077" fill="black"/>
<circle cx="16.8077" cy="52.6538" r="4.23077" fill="black"/>
<circle cx="44.3077" cy="52.6538" r="4.23077" fill="black"/>
<path d="M34.7552 56.5594C32.7132 52.9392 28.5048 51.7955 25.2462 55.9608" stroke="black" stroke-width="4.23077" stroke-linecap="round"/>
<defs>
<linearGradient id="paint0_linear_17_858" x1="37.6828" y1="31.5" x2="37.6828" y2="80.7145" gradientUnits="userSpaceOnUse">
<stop stop-color="#FFCE4F"/>
<stop offset="1" stop-color="#D29335"/>
</linearGradient>
</defs>
</svg>
