<svg width="80" height="83" viewBox="0 0 80 83" fill="none" xmlns="http://www.w3.org/2000/svg">
<path d="M69.8612 56.3975C70.2448 59.1301 70.0888 61.6764 69.6167 63.8011C67.7485 72.208 55.9809 81.44 35.7708 79.8399C33.0969 79.6282 27.3091 78.6089 27.3091 78.6089C27.3091 78.6089 17.71 75.6591 13.5192 72.1288C9.32847 68.5985 5.05768 63.5332 5.05768 55.2057C5.05768 46.8782 9.28848 40.398 12.5015 37.2249C15.7144 34.0519 21.9808 31.9365 21.9808 31.9365C27.2692 30.8788 35.3183 30.6737 36.7885 30.8788C41.1919 31.638 45.0901 32.7928 48.4631 34.0125C49.9683 34.5569 51.3768 35.1408 52.6939 35.7588C64.3957 41.2496 68.8829 49.4293 69.8612 56.3975Z" fill="url(#paint0_linear_17_932)"/>
<path d="M53.7115 37.1538C61.1154 52.5041 57.9423 68.8846 46.3077 77.3461" stroke="#875B19" stroke-width="6.34615" stroke-linecap="round" stroke-linejoin="round"/>
<path d="M39.0196 11.9033C44.3081 5.55717 52.09 1.78917 59.1158 4.49948C66.1416 7.20979 66.1416 16.729 60.8531 24.1329C55.5647 31.5367 47.4812 32.8837 47.4812 32.8837C44.1082 31.6639 40.2099 30.5092 35.8065 29.75C34.3363 29.5449 26.2873 29.75 20.9988 30.8077C20.9988 30.8077 16.8081 24.5956 15.7504 16.1341C14.6927 7.67252 21.0387 2.38409 28.4427 3.44179C35.8467 4.49948 39.0196 11.9033 39.0196 11.9033Z" fill="white"/>
<path d="M35.7308 29.75C35.7308 29.75 33.6554 18.2495 38.9439 11.9033M35.7308 29.75C40.62 30.4321 44.0325 31.6639 47.4054 32.8837M35.7308 29.75C30.8415 29.0678 28.3269 28.6923 20.9231 30.8077M68.559 62.6723C69.0312 60.5476 69.1872 58.0013 68.8035 55.2687M68.559 62.6723L75.9231 60.4231L68.8035 55.2687M68.559 62.6723C66.6908 71.0792 54.9232 80.3112 34.7131 78.7111C32.0392 78.4994 26.2514 77.4801 26.2514 77.4801C26.2514 77.4801 16.6523 74.5303 12.4615 71C8.27079 67.4697 4 62.4044 4 54.0769C4 45.7494 8.2308 39.2692 11.4438 36.0961C14.6567 32.9231 20.9231 30.8077 20.9231 30.8077M68.8035 55.2687C67.8252 48.3005 63.338 40.1208 51.6362 34.63C50.3191 34.012 48.9106 33.4281 47.4054 32.8837M38.9439 11.9033C44.2324 5.55717 52.0142 1.78917 59.0401 4.49948C66.0659 7.20979 66.0659 16.729 60.7774 24.1329C55.4889 31.5367 47.4054 32.8837 47.4054 32.8837M38.9439 11.9033C38.9439 11.9033 35.771 4.49948 28.367 3.44179C20.963 2.38409 14.617 7.67252 15.6747 16.1341C16.7324 24.5956 20.9231 30.8077 20.9231 30.8077" stroke="#442F11" stroke-width="6.34615" stroke-linecap="round" stroke-linejoin="round"/>
<path d="M28.3269 35.0384C25.1538 32.9231 25.1537 22.3461 26.2114 19.1731M39.9615 36.0961C37.8461 32.9231 38.9038 25.5192 42.8513 22.3461" stroke="black" stroke-width="4.23077" stroke-linecap="round"/>
<circle cx="26.2115" cy="18.1154" r="4.23077" fill="black"/>
<circle cx="45.25" cy="20.2308" r="4.23077" fill="black"/>
<path d="M17.1665 43.2659C17.0774 43.0854 16.8936 42.9711 16.6923 42.9711C16.491 42.9711 16.3071 43.0854 16.218 43.2659L14.476 46.7957L10.5807 47.3617C10.3815 47.3907 10.216 47.5302 10.1538 47.7217C10.0916 47.9131 10.1434 48.1233 10.2876 48.2638L13.1063 51.0113L12.4409 54.8909C12.4068 55.0893 12.4884 55.2898 12.6513 55.4081C12.8141 55.5265 13.03 55.5421 13.2082 55.4484L16.6923 53.6167L20.1764 55.4484C20.3545 55.5421 20.5705 55.5265 20.7333 55.4081C20.8962 55.2898 20.9777 55.0893 20.9437 54.8909L20.2783 51.0113L23.097 48.2638C23.2411 48.1233 23.293 47.9131 23.2308 47.7217C23.1686 47.5302 23.0031 47.3907 22.8039 47.3617L18.9086 46.7957L17.1665 43.2659Z" fill="#6C70D8" stroke="#6C70D8" stroke-width="1.05769" stroke-linejoin="round"/>
<path d="M46.7819 45.3813C46.6928 45.2008 46.509 45.0865 46.3077 45.0865C46.1064 45.0865 45.9226 45.2008 45.8335 45.3813L44.0914 48.9111L40.1961 49.4771C39.9969 49.5061 39.8314 49.6456 39.7692 49.837C39.707 50.0285 39.7589 50.2386 39.903 50.3792L42.7217 53.1267L42.0563 57.0063C42.0223 57.2047 42.1038 57.4052 42.2667 57.5235C42.4295 57.6418 42.6454 57.6574 42.8236 57.5638L46.3077 55.7321L49.7918 57.5638C49.97 57.6574 50.1859 57.6418 50.3487 57.5235C50.5116 57.4052 50.5931 57.2047 50.5591 57.0063L49.8937 53.1267L52.7124 50.3792C52.8565 50.2386 52.9084 50.0285 52.8462 49.837C52.784 49.6456 52.6185 49.5061 52.4193 49.4771L48.524 48.9111L46.7819 45.3813Z" fill="#6C70D8" stroke="#6C70D8" stroke-width="1.05769" stroke-linejoin="round"/>
<path d="M30.1913 62.4662C36.8893 63.3983 37.8462 55.0091 37.8462 55.0091L31.6266 54.543L25.4069 54.0769C25.4069 54.0769 23.4932 61.534 30.1913 62.4662Z" fill="#CA4E4E"/>
<path d="M30.1913 62.4662C36.8893 63.3983 37.8462 55.0091 37.8462 55.0091L31.6266 54.543L25.4069 54.0769C25.4069 54.0769 23.4932 61.534 30.1913 62.4662Z" stroke="black" stroke-width="3.17308" stroke-linecap="round" stroke-linejoin="round"/>
<defs>
<linearGradient id="paint0_linear_17_932" x1="37.5674" y1="30.8077" x2="37.5674" y2="80.0222" gradientUnits="userSpaceOnUse">
<stop stop-color="#FFCE4F"/>
<stop offset="1" stop-color="#D29335"/>
</linearGradient>
</defs>
</svg>
