<svg width="80" height="83" viewBox="0 0 80 83" fill="none" xmlns="http://www.w3.org/2000/svg">
<path d="M69.9766 56.3975C70.3603 59.1301 70.2043 61.6764 69.7321 63.8011C67.8639 72.208 56.0963 81.44 35.8862 79.8399C33.2123 79.6282 27.4245 78.6089 27.4245 78.6089C27.4245 78.6089 17.8254 75.6591 13.6346 72.1288C9.44389 68.5985 5.1731 63.5332 5.1731 55.2057C5.1731 46.8782 9.4039 40.398 12.6169 37.2249C15.8298 34.0519 22.0962 31.9365 22.0962 31.9365C27.3846 30.8788 35.4337 30.6737 36.9039 30.8788C41.3073 31.638 45.2056 32.7928 48.5785 34.0125C50.0837 34.5569 51.4922 35.1408 52.8093 35.7588C64.5111 41.2496 68.9983 49.4293 69.9766 56.3975Z" fill="url(#paint0_linear_17_885)"/>
<path d="M53.8269 37.1538C61.2308 52.5041 58.0577 68.8846 46.4231 77.3461" stroke="#875B19" stroke-width="6.34615" stroke-linecap="round" stroke-linejoin="round"/>
<path d="M39.135 11.9033C44.4234 5.55717 52.2053 1.78917 59.2311 4.49948C66.2569 7.20979 66.2569 16.729 60.9685 24.1329C55.68 31.5367 47.5965 32.8837 47.5965 32.8837C44.2235 31.6639 40.3253 30.5092 35.9219 29.75C34.4517 29.5449 26.4026 29.75 21.1142 30.8077C21.1142 30.8077 16.9234 24.5956 15.8658 16.1341C14.8081 7.67252 21.154 2.38409 28.5581 3.44179C35.9621 4.49948 39.135 11.9033 39.135 11.9033Z" fill="white"/>
<path d="M35.8461 29.75C35.8461 29.75 33.7708 18.2495 39.0593 11.9033M35.8461 29.75C40.7354 30.4321 44.1478 31.6639 47.5208 32.8837M35.8461 29.75C30.9569 29.0678 28.4423 28.6923 21.0384 30.8077M68.6744 62.6723C69.1465 60.5476 69.3025 58.0013 68.9189 55.2687M68.6744 62.6723L76.0384 60.4231L68.9189 55.2687M68.6744 62.6723C66.8062 71.0792 55.0385 80.3112 34.8285 78.7111C32.1546 78.4994 26.3668 77.4801 26.3668 77.4801C26.3668 77.4801 16.7676 74.5303 12.5769 71C8.38615 67.4697 4.11536 62.4044 4.11536 54.0769C4.11536 45.7494 8.34616 39.2692 11.5591 36.0961C14.7721 32.9231 21.0384 30.8077 21.0384 30.8077M68.9189 55.2687C67.9406 48.3005 63.4534 40.1208 51.7516 34.63C50.4345 34.012 49.026 33.4281 47.5208 32.8837M39.0593 11.9033C44.3477 5.55717 52.1296 1.78917 59.1554 4.49948C66.1812 7.20979 66.1812 16.729 60.8927 24.1329C55.6043 31.5367 47.5208 32.8837 47.5208 32.8837M39.0593 11.9033C39.0593 11.9033 35.8864 4.49948 28.4823 3.44179C21.0783 2.38409 14.7323 7.67252 15.79 16.1341C16.8477 24.5956 21.0384 30.8077 21.0384 30.8077" stroke="#442F11" stroke-width="6.34615" stroke-linecap="round" stroke-linejoin="round"/>
<path d="M28.4423 35.0384C25.2692 32.9231 25.2691 22.3461 26.3269 19.1731M40.0769 36.0961C37.9615 32.9231 39.0192 25.5192 42.9667 22.3461" stroke="black" stroke-width="4.23077" stroke-linecap="round"/>
<circle cx="26.3269" cy="18.1154" r="4.23077" fill="black"/>
<circle cx="45.3654" cy="20.2308" r="4.23077" fill="black"/>
<circle cx="16.8077" cy="51.9615" r="4.23077" fill="black"/>
<circle cx="44.3077" cy="51.9615" r="4.23077" fill="black"/>
<path d="M25.2692 51.9615V60.4231L29.941 60.4231V57.25H35.8461V51.9615H29.941H25.2692Z" fill="white"/>
<path d="M29.941 51.9615C28.0992 51.9615 26.4082 51.9615 25.2692 51.9615V60.4231L29.941 60.4231V51.9615ZM29.941 51.9615C31.8998 51.9615 34.029 51.9615 35.8461 51.9615V57.25H29.941" stroke="black" stroke-width="3.17308" stroke-linecap="round" stroke-linejoin="round"/>
<defs>
<linearGradient id="paint0_linear_17_885" x1="37.6828" y1="30.8077" x2="37.6828" y2="80.0222" gradientUnits="userSpaceOnUse">
<stop stop-color="#FFCE4F"/>
<stop offset="1" stop-color="#D29335"/>
</linearGradient>
</defs>
</svg>
