<svg width="79" height="83" viewBox="0 0 79 83" fill="none" xmlns="http://www.w3.org/2000/svg">
<path d="M69.4766 56.5898C69.8603 59.3224 69.7043 61.8687 69.2321 63.9934C67.3639 72.4003 55.5963 81.6323 35.3862 80.0322C32.7123 79.8205 26.9245 78.8012 26.9245 78.8012C26.9245 78.8012 17.3254 75.8514 13.1346 72.3211C8.94389 68.7908 4.6731 63.7255 4.6731 55.398C4.6731 47.0706 8.9039 40.5903 12.1169 37.4173C15.3298 34.2442 21.5962 32.1288 21.5962 32.1288C26.8846 31.0711 34.9337 30.866 36.4039 31.0711C40.8073 31.8303 44.7056 32.9851 48.0785 34.2049C49.5837 34.7492 50.9922 35.3331 52.3093 35.9512C64.0111 41.442 68.4983 49.6217 69.4766 56.5898Z" fill="url(#paint0_linear_17_978)"/>
<path d="M53.3269 37.3461C60.7308 52.6964 57.5577 69.0769 45.9231 77.5385" stroke="#875B19" stroke-width="6.34615" stroke-linecap="round" stroke-linejoin="round"/>
<path d="M38.635 12.0956C43.9234 5.74949 51.7053 1.98148 58.7311 4.69179C65.7569 7.4021 65.7569 16.9214 60.4685 24.3252C55.18 31.7291 47.0965 33.076 47.0965 33.076C43.7235 31.8563 39.8253 30.7015 35.4219 29.9423C33.9517 29.7372 25.9026 29.9423 20.6142 31C20.6142 31 16.4234 24.7879 15.3658 16.3264C14.3081 7.86484 20.654 2.57641 28.0581 3.6341C35.4621 4.69179 38.635 12.0956 38.635 12.0956Z" fill="white"/>
<path d="M35.3461 29.9423C35.3461 29.9423 33.2708 18.4418 38.5593 12.0956M35.3461 29.9423C40.2354 30.6245 43.6478 31.8563 47.0208 33.0761M35.3461 29.9423C30.4569 29.2602 27.9423 28.8846 20.5384 31M68.1744 62.8646C68.6465 60.7399 68.8025 58.1936 68.4189 55.461M68.1744 62.8646L75.5384 60.6154L68.4189 55.461M68.1744 62.8646C66.3062 71.2715 54.5385 80.5035 34.3285 78.9034C31.6546 78.6917 25.8668 77.6724 25.8668 77.6724C25.8668 77.6724 16.2676 74.7226 12.0769 71.1923C7.88615 67.662 3.61536 62.5967 3.61536 54.2692C3.61536 45.9418 7.84616 39.4615 11.0591 36.2885C14.2721 33.1154 20.5384 31 20.5384 31M68.4189 55.461C67.4406 48.4928 62.9534 40.3132 51.2516 34.8223C49.9345 34.2043 48.526 33.6204 47.0208 33.0761M38.5593 12.0956C43.8477 5.74949 51.6296 1.98149 58.6554 4.6918C65.6812 7.40211 65.6812 16.9214 60.3927 24.3252C55.1043 31.7291 47.0208 33.0761 47.0208 33.0761M38.5593 12.0956C38.5593 12.0956 35.3864 4.6918 27.9823 3.63411C20.5783 2.57642 14.2323 7.86484 15.29 16.3264C16.3477 24.7879 20.5384 31 20.5384 31" stroke="#442F11" stroke-width="6.34615" stroke-linecap="round" stroke-linejoin="round"/>
<path d="M27.9423 35.2308C24.7692 33.1154 24.7691 22.5385 25.8269 19.3654M39.5769 36.2885C37.4615 33.1154 38.5192 25.7115 42.4667 22.5385" stroke="black" stroke-width="4.23077" stroke-linecap="round"/>
<circle cx="25.8269" cy="18.3077" r="4.23077" fill="black"/>
<circle cx="44.8654" cy="20.4231" r="4.23077" fill="black"/>
<circle cx="45.9231" cy="52.1538" r="4.23077" fill="black"/>
<path d="M27.9423 59.5577C27.9423 59.5577 29 60.6154 31.1154 60.6154C33.2308 60.6154 34.2885 59.5577 34.2885 59.5577" stroke="black" stroke-width="4.23077" stroke-linecap="round"/>
<circle cx="18.4231" cy="50.0385" r="4.23077" fill="black"/>
<circle cx="18.4231" cy="50.0385" r="8.46154" stroke="black" stroke-width="4.23077"/>
<path d="M26.8846 51.0961C30.0577 50.0384 33.2308 50.0385 37.4616 51.0961" stroke="black" stroke-width="4.23077" stroke-linecap="round" stroke-linejoin="round"/>
<circle cx="45.9231" cy="52.1538" r="8.46154" stroke="black" stroke-width="4.23077"/>
<path d="M54.3846 52.1538L62.8462 47.9231M9.96154 48.9808L5.73077 43.6923" stroke="black" stroke-width="4.23077" stroke-linecap="round" stroke-linejoin="round"/>
<defs>
<linearGradient id="paint0_linear_17_978" x1="37.1828" y1="31" x2="37.1828" y2="80.2145" gradientUnits="userSpaceOnUse">
<stop stop-color="#FFCE4F"/>
<stop offset="1" stop-color="#D29335"/>
</linearGradient>
</defs>
</svg>
