<svg width="80" height="83" viewBox="0 0 80 83" fill="none" xmlns="http://www.w3.org/2000/svg">
<path d="M69.8613 57.0898C70.2449 59.8224 70.0889 62.3687 69.6167 64.4935C67.7486 72.9003 55.9809 82.1323 35.7709 80.5322C33.097 80.3205 27.3092 79.3012 27.3092 79.3012C27.3092 79.3012 17.71 76.3514 13.5193 72.8211C9.32853 69.2908 5.05774 64.2255 5.05774 55.898C5.05774 47.5706 9.28854 41.0903 12.5015 37.9173C15.7145 34.7442 21.9808 32.6288 21.9808 32.6288C27.2693 31.5711 35.3183 31.366 36.7885 31.5711C41.192 32.3303 45.0902 33.4851 48.4632 34.7049C49.9684 35.2492 51.3768 35.8331 52.6939 36.4512C64.3957 41.942 68.883 50.1217 69.8613 57.0898Z" fill="url(#paint0_linear_17_1200)"/>
<path d="M53.7116 37.8462C61.1154 53.1964 57.9424 69.5769 46.3077 78.0385" stroke="#875B19" stroke-width="6.34615" stroke-linecap="round" stroke-linejoin="round"/>
<path d="M39.0196 12.5957C44.3081 6.2495 52.09 2.4815 59.1158 5.19181C66.1416 7.90212 66.1416 17.4214 60.8531 24.8252C55.5647 32.2291 47.4812 33.5761 47.4812 33.5761C44.1082 32.3563 40.2099 31.2015 35.8065 30.4423C34.3363 30.2372 26.2873 30.4423 20.9988 31.5C20.9988 31.5 16.8081 25.2879 15.7504 16.8264C14.6927 8.36485 21.0387 3.07642 28.4427 4.13412C35.8467 5.19181 39.0196 12.5957 39.0196 12.5957Z" fill="white"/>
<path d="M35.7308 30.4423C35.7308 30.4423 33.6554 18.9418 38.9439 12.5956M35.7308 30.4423C40.62 31.1245 44.0325 32.3563 47.4054 33.5761M35.7308 30.4423C30.8415 29.7602 28.3269 29.3846 20.9231 31.5M68.559 63.3646C69.0312 61.2399 69.1872 58.6936 68.8035 55.961M68.559 63.3646L75.9231 61.1154L68.8035 55.961M68.559 63.3646C66.6908 71.7715 54.9232 81.0035 34.7131 79.4034C32.0392 79.1917 26.2514 78.1724 26.2514 78.1724C26.2514 78.1724 16.6523 75.2226 12.4615 71.6923C8.27079 68.162 4 63.0967 4 54.7692C4 46.4418 8.2308 39.9615 11.4438 36.7885C14.6567 33.6154 20.9231 31.5 20.9231 31.5M68.8035 55.961C67.8252 48.9928 63.338 40.8132 51.6362 35.3223C50.3191 34.7043 48.9106 34.1204 47.4054 33.5761M38.9439 12.5956C44.2324 6.24949 52.0142 2.48149 59.0401 5.1918C66.0659 7.90211 66.0659 17.4214 60.7774 24.8252C55.4889 32.2291 47.4054 33.5761 47.4054 33.5761M38.9439 12.5956C38.9439 12.5956 35.771 5.1918 28.367 4.13411C20.963 3.07642 14.617 8.36484 15.6747 16.8264C16.7324 25.2879 20.9231 31.5 20.9231 31.5" stroke="#442F11" stroke-width="6.34615" stroke-linecap="round" stroke-linejoin="round"/>
<path d="M28.3269 35.7308C25.1539 33.6154 25.1538 23.0385 26.2115 19.8654M39.9616 36.7885C37.8462 33.6154 38.9039 26.2115 42.8513 23.0385" stroke="black" stroke-width="4.23077" stroke-linecap="round"/>
<circle cx="26.2115" cy="18.8077" r="4.23077" fill="black"/>
<circle cx="45.2501" cy="20.9231" r="4.23077" fill="black"/>
<path d="M12.8718 50.707C14.8424 52.6246 18.0246 52.6706 19.7858 49.5835" stroke="black" stroke-width="4.23077" stroke-linecap="round"/>
<path d="M41.6368 50.7523C42.2209 53.4392 44.8486 55.2347 48.0216 53.6333" stroke="black" stroke-width="4.23077" stroke-linecap="round"/>
<path d="M29.0374 62.3892C35.7354 63.3214 36.6923 54.9321 36.6923 54.9321L30.4727 54.4661L24.2531 54C24.2531 54 22.3393 61.4571 29.0374 62.3892Z" fill="#CA4E4E" stroke="black" stroke-width="3.17308" stroke-linecap="round" stroke-linejoin="round"/>
<defs>
<linearGradient id="paint0_linear_17_1200" x1="37.5674" y1="31.5" x2="37.5674" y2="80.7145" gradientUnits="userSpaceOnUse">
<stop stop-color="#FFCE4F"/>
<stop offset="1" stop-color="#D29335"/>
</linearGradient>
</defs>
</svg>
