<svg width="79" height="83" viewBox="0 0 79 83" fill="none" xmlns="http://www.w3.org/2000/svg">
<path d="M69.3612 57.0898C69.7448 59.8224 69.5888 62.3687 69.1167 64.4935C67.2485 72.9003 55.4809 82.1323 35.2708 80.5322C32.5969 80.3205 26.8091 79.3012 26.8091 79.3012C26.8091 79.3012 17.21 76.3514 13.0192 72.8211C8.82847 69.2908 4.55768 64.2255 4.55768 55.898C4.55768 47.5706 8.78848 41.0903 12.0015 37.9173C15.2144 34.7442 21.4808 32.6288 21.4808 32.6288C26.7692 31.5711 34.8183 31.366 36.2885 31.5711C40.6919 32.3303 44.5901 33.4851 47.9631 34.7049C49.4683 35.2492 50.8768 35.8331 52.1939 36.4512C63.8957 41.942 68.3829 50.1217 69.3612 57.0898Z" fill="url(#paint0_linear_17_849)"/>
<path d="M53.2115 37.8461C60.6154 53.1964 57.4423 69.5769 45.8077 78.0385" stroke="#875B19" stroke-width="6.34615" stroke-linecap="round" stroke-linejoin="round"/>
<path d="M38.5196 12.5956C43.8081 6.24949 51.59 2.48149 58.6158 5.1918C65.6416 7.90211 65.6416 17.4214 60.3531 24.8252C55.0647 32.2291 46.9812 33.5761 46.9812 33.5761C43.6082 32.3563 39.7099 31.2015 35.3065 30.4423C33.8363 30.2372 25.7873 30.4423 20.4988 31.5C20.4988 31.5 16.3081 25.2879 15.2504 16.8264C14.1927 8.36484 20.5387 3.07642 27.9427 4.13411C35.3467 5.1918 38.5196 12.5956 38.5196 12.5956Z" fill="white"/>
<path d="M35.2308 30.4423C35.2308 30.4423 33.1554 18.9418 38.4439 12.5956M35.2308 30.4423C40.12 31.1245 43.5325 32.3563 46.9054 33.5761M35.2308 30.4423C30.3415 29.7602 27.8269 29.3846 20.4231 31.5M68.059 63.3646C68.5312 61.2399 68.6872 58.6936 68.3035 55.961M68.059 63.3646L75.4231 61.1154L68.3035 55.961M68.059 63.3646C66.1908 71.7715 54.4232 81.0035 34.2131 79.4034C31.5392 79.1917 25.7514 78.1724 25.7514 78.1724C25.7514 78.1724 16.1523 75.2226 11.9615 71.6923C7.77079 68.162 3.5 63.0967 3.5 54.7692C3.5 46.4418 7.7308 39.9615 10.9438 36.7885C14.1567 33.6154 20.4231 31.5 20.4231 31.5M68.3035 55.961C67.3252 48.9928 62.838 40.8132 51.1362 35.3223C49.8191 34.7043 48.4106 34.1204 46.9054 33.5761M38.4439 12.5956C43.7324 6.24949 51.5142 2.48149 58.5401 5.1918C65.5659 7.90211 65.5659 17.4214 60.2774 24.8252C54.9889 32.2291 46.9054 33.5761 46.9054 33.5761M38.4439 12.5956C38.4439 12.5956 35.271 5.1918 27.867 4.13411C20.463 3.07642 14.117 8.36484 15.1747 16.8264C16.2324 25.2879 20.4231 31.5 20.4231 31.5" stroke="#442F11" stroke-width="6.34615" stroke-linecap="round" stroke-linejoin="round"/>
<path d="M27.8269 35.7308C24.6538 33.6154 24.6537 23.0384 25.7114 19.8654M39.4615 36.7884C37.3461 33.6154 38.4038 26.2115 42.3513 23.0384" stroke="black" stroke-width="4.23077" stroke-linecap="round"/>
<circle cx="25.7115" cy="18.8077" r="4.23077" fill="black"/>
<circle cx="44.75" cy="20.9231" r="4.23077" fill="black"/>
<circle cx="16.1923" cy="52.6538" r="4.23077" fill="black"/>
<circle cx="43.6923" cy="52.6538" r="4.23077" fill="black"/>
<path d="M24.6539 53.3067C26.7693 56.8846 31 57.9423 34.1731 53.7115" stroke="black" stroke-width="4.23077" stroke-linecap="round"/>
<defs>
<linearGradient id="paint0_linear_17_849" x1="37.0674" y1="31.5" x2="37.0674" y2="80.7145" gradientUnits="userSpaceOnUse">
<stop stop-color="#FFCE4F"/>
<stop offset="1" stop-color="#D29335"/>
</linearGradient>
</defs>
</svg>
