<svg width="80" height="83" viewBox="0 0 80 83" fill="none" xmlns="http://www.w3.org/2000/svg">
<path d="M69.9766 56.8975C70.3603 59.6301 70.2043 62.1764 69.7321 64.3011C67.8639 72.708 56.0963 81.94 35.8862 80.3399C33.2123 80.1282 27.4245 79.1089 27.4245 79.1089C27.4245 79.1089 17.8254 76.1591 13.6346 72.6288C9.44389 69.0985 5.1731 64.0332 5.1731 55.7057C5.1731 47.3782 9.4039 40.898 12.6169 37.725C15.8298 34.5519 22.0962 32.4365 22.0962 32.4365C27.3846 31.3788 35.4337 31.1737 36.9039 31.3788C41.3073 32.138 45.2056 33.2928 48.5785 34.5125C50.0837 35.0569 51.4922 35.6408 52.8093 36.2588C64.5111 41.7496 68.9983 49.9293 69.9766 56.8975Z" fill="url(#paint0_linear_17_1045)"/>
<path d="M53.8269 37.6538C61.2308 53.0041 58.0577 69.3846 46.4231 77.8461" stroke="#875B19" stroke-width="6.34615" stroke-linecap="round" stroke-linejoin="round"/>
<path d="M39.135 12.4033C44.4234 6.05718 52.2053 2.28917 59.2311 4.99948C66.2569 7.7098 66.2569 17.2291 60.9685 24.6329C55.68 32.0367 47.5965 33.3837 47.5965 33.3837C44.2235 32.1639 40.3253 31.0092 35.9219 30.25C34.4517 30.0449 26.4026 30.25 21.1142 31.3077C21.1142 31.3077 16.9234 25.0956 15.8658 16.6341C14.8081 8.17253 21.154 2.8841 28.5581 3.94179C35.9621 4.99948 39.135 12.4033 39.135 12.4033Z" fill="white"/>
<path d="M35.8461 30.25C35.8461 30.25 33.7708 18.7495 39.0593 12.4033M35.8461 30.25C40.7354 30.9321 44.1478 32.1639 47.5208 33.3837M35.8461 30.25C30.9569 29.5678 28.4423 29.1923 21.0384 31.3077M68.6744 63.1723C69.1465 61.0476 69.3025 58.5013 68.9189 55.7687M68.6744 63.1723L76.0384 60.9231L68.9189 55.7687M68.6744 63.1723C66.8062 71.5792 55.0385 80.8112 34.8285 79.2111C32.1546 78.9994 26.3668 77.9801 26.3668 77.9801C26.3668 77.9801 16.7676 75.0303 12.5769 71.5C8.38615 67.9697 4.11536 62.9044 4.11536 54.5769C4.11536 46.2494 8.34616 39.7692 11.5591 36.5961C14.7721 33.4231 21.0384 31.3077 21.0384 31.3077M68.9189 55.7687C67.9406 48.8005 63.4534 40.6208 51.7516 35.13C50.4345 34.512 49.026 33.9281 47.5208 33.3837M39.0593 12.4033C44.3477 6.05717 52.1296 2.28917 59.1554 4.99948C66.1812 7.70979 66.1812 17.229 60.8927 24.6329C55.6043 32.0367 47.5208 33.3837 47.5208 33.3837M39.0593 12.4033C39.0593 12.4033 35.8864 4.99948 28.4823 3.94179C21.0783 2.88409 14.7323 8.17252 15.79 16.6341C16.8477 25.0956 21.0384 31.3077 21.0384 31.3077" stroke="#442F11" stroke-width="6.34615" stroke-linecap="round" stroke-linejoin="round"/>
<path d="M28.4423 35.5385C25.2692 33.4231 25.2691 22.8461 26.3269 19.6731M40.0769 36.5961C37.9615 33.4231 39.0192 26.0192 42.9667 22.8461" stroke="black" stroke-width="4.23077" stroke-linecap="round"/>
<circle cx="26.3269" cy="18.6154" r="4.23077" fill="black"/>
<circle cx="45.3654" cy="20.7308" r="4.23077" fill="black"/>
<path d="M27.3846 56.6923C29.5 60.2702 33.7308 61.3279 36.9039 57.0971" stroke="black" stroke-width="4.23077" stroke-linecap="round"/>
<circle cx="22.0962" cy="51.4038" r="3.17308" fill="black"/>
<circle cx="45.3654" cy="51.4038" r="3.17308" fill="black"/>
<path d="M14.6923 48.2308H24.2116" stroke="black" stroke-width="4.23077" stroke-linecap="round" stroke-linejoin="round"/>
<path d="M37.9615 48.2308H47.4808" stroke="black" stroke-width="4.23077" stroke-linecap="round" stroke-linejoin="round"/>
<defs>
<linearGradient id="paint0_linear_17_1045" x1="37.6828" y1="31.3077" x2="37.6828" y2="80.5222" gradientUnits="userSpaceOnUse">
<stop stop-color="#FFCE4F"/>
<stop offset="1" stop-color="#D29335"/>
</linearGradient>
</defs>
</svg>
