<svg width="79" height="83" viewBox="0 0 79 83" fill="none" xmlns="http://www.w3.org/2000/svg">
<path d="M69.7074 56.5898C70.091 59.3224 69.935 61.8687 69.4629 63.9934C67.5947 72.4003 55.827 81.6323 35.617 80.0322C32.9431 79.8205 27.1553 78.8012 27.1553 78.8012C27.1553 78.8012 17.5562 75.8514 13.3654 72.3211C9.17466 68.7908 4.90387 63.7255 4.90387 55.398C4.90387 47.0706 9.13467 40.5903 12.3476 37.4173C15.5606 34.2442 21.8269 32.1288 21.8269 32.1288C27.1154 31.0711 35.1645 30.866 36.6346 31.0711C41.0381 31.8303 44.9363 32.9851 48.3093 34.2049C49.8145 34.7492 51.223 35.3331 52.5401 35.9512C64.2419 41.442 68.7291 49.6217 69.7074 56.5898Z" fill="url(#paint0_linear_17_1022)"/>
<path d="M53.5577 37.3461C60.9616 52.6964 57.7885 69.0769 46.1539 77.5385" stroke="#875B19" stroke-width="6.34615" stroke-linecap="round" stroke-linejoin="round"/>
<path d="M38.8658 12.0956C44.1542 5.74949 51.9361 1.98148 58.9619 4.69179C65.9877 7.4021 65.9877 16.9214 60.6992 24.3252C55.4108 31.7291 47.3273 33.076 47.3273 33.076C43.9543 31.8563 40.0561 30.7015 35.6526 29.9423C34.1824 29.7372 26.1334 29.9423 20.8449 31C20.8449 31 16.6542 24.7879 15.5965 16.3264C14.5388 7.86484 20.8848 2.57641 28.2888 3.6341C35.6929 4.69179 38.8658 12.0956 38.8658 12.0956Z" fill="white"/>
<path d="M35.5769 29.9423C35.5769 29.9423 33.5016 18.4418 38.79 12.0956M35.5769 29.9423C40.4662 30.6245 43.8786 31.8563 47.2516 33.0761M35.5769 29.9423C30.6876 29.2602 28.1731 28.8846 20.7692 31M68.4051 62.8646C68.8773 60.7399 69.0333 58.1936 68.6497 55.461M68.4051 62.8646L75.7692 60.6154L68.6497 55.461M68.4051 62.8646C66.5369 71.2715 54.7693 80.5035 34.5593 78.9034C31.8853 78.6917 26.0975 77.6724 26.0975 77.6724C26.0975 77.6724 16.4984 74.7226 12.3077 71.1923C8.11692 67.662 3.84613 62.5967 3.84613 54.2692C3.84613 45.9418 8.07693 39.4615 11.2899 36.2885C14.5029 33.1154 20.7692 31 20.7692 31M68.6497 55.461C67.6714 48.4928 63.1841 40.3132 51.4823 34.8223C50.1652 34.2043 48.7568 33.6204 47.2516 33.0761M38.79 12.0956C44.0785 5.74949 51.8604 1.98149 58.8862 4.6918C65.912 7.40211 65.912 16.9214 60.6235 24.3252C55.3351 31.7291 47.2516 33.0761 47.2516 33.0761M38.79 12.0956C38.79 12.0956 35.6171 4.6918 28.2131 3.63411C20.8091 2.57642 14.4631 7.86484 15.5208 16.3264C16.5785 24.7879 20.7692 31 20.7692 31" stroke="#442F11" stroke-width="6.34615" stroke-linecap="round" stroke-linejoin="round"/>
<path d="M28.1731 35.2308C25 33.1154 24.9999 22.5385 26.0576 19.3654M39.8077 36.2885C37.6923 33.1154 38.75 25.7115 42.6975 22.5385" stroke="black" stroke-width="4.23077" stroke-linecap="round"/>
<circle cx="26.0577" cy="18.3077" r="4.23077" fill="black"/>
<circle cx="45.0961" cy="20.4231" r="4.23077" fill="black"/>
<path d="M30.0374 60.5431C36.7354 61.4752 37.6923 53.086 37.6923 53.086L31.4727 52.6199L25.2531 52.1538C25.2531 52.1538 23.3393 59.6109 30.0374 60.5431Z" fill="#CA4E4E"/>
<path d="M30.0374 60.5431C36.7354 61.4752 37.6923 53.086 37.6923 53.086L31.4727 52.6199L25.2531 52.1538C25.2531 52.1538 23.3393 59.6109 30.0374 60.5431Z" stroke="black" stroke-width="3.17308" stroke-linecap="round" stroke-linejoin="round"/>
<path d="M16.5385 45.8077L21.8269 48.9808L16.5385 52.1538" stroke="black" stroke-width="4.23077" stroke-linecap="round" stroke-linejoin="round"/>
<path d="M47.2115 47.9231L41.9231 51.0961L47.2115 54.2692" stroke="black" stroke-width="4.23077" stroke-linecap="round" stroke-linejoin="round"/>
<defs>
<linearGradient id="paint0_linear_17_1022" x1="37.4136" y1="31" x2="37.4136" y2="80.2145" gradientUnits="userSpaceOnUse">
<stop stop-color="#FFCE4F"/>
<stop offset="1" stop-color="#D29335"/>
</linearGradient>
</defs>
</svg>
