<svg width="79" height="83" viewBox="0 0 79 83" fill="none" xmlns="http://www.w3.org/2000/svg">
<path d="M69.4766 56.3975C69.8603 59.1301 69.7043 61.6764 69.2321 63.8011C67.3639 72.208 55.5963 81.44 35.3862 79.8399C32.7123 79.6282 26.9245 78.6089 26.9245 78.6089C26.9245 78.6089 17.3254 75.6591 13.1346 72.1288C8.94389 68.5985 4.6731 63.5332 4.6731 55.2057C4.6731 46.8782 8.9039 40.398 12.1169 37.2249C15.3298 34.0519 21.5962 31.9365 21.5962 31.9365C26.8846 30.8788 34.9337 30.6737 36.4039 30.8788C40.8073 31.638 44.7056 32.7928 48.0785 34.0125C49.5837 34.5569 50.9922 35.1408 52.3093 35.7588C64.0111 41.2496 68.4983 49.4293 69.4766 56.3975Z" fill="url(#paint0_linear_17_910)"/>
<path d="M53.3269 37.1538C60.7308 52.5041 57.5577 68.8846 45.9231 77.3461" stroke="#875B19" stroke-width="6.34615" stroke-linecap="round" stroke-linejoin="round"/>
<path d="M38.635 11.9033C43.9234 5.55717 51.7053 1.78917 58.7311 4.49948C65.7569 7.20979 65.7569 16.729 60.4685 24.1329C55.18 31.5367 47.0965 32.8837 47.0965 32.8837C43.7235 31.6639 39.8253 30.5092 35.4219 29.75C33.9517 29.5449 25.9026 29.75 20.6142 30.8077C20.6142 30.8077 16.4234 24.5956 15.3658 16.1341C14.3081 7.67252 20.654 2.38409 28.0581 3.44179C35.4621 4.49948 38.635 11.9033 38.635 11.9033Z" fill="white"/>
<path d="M35.3461 29.75C35.3461 29.75 33.2708 18.2495 38.5593 11.9033M35.3461 29.75C40.2354 30.4321 43.6478 31.6639 47.0208 32.8837M35.3461 29.75C30.4569 29.0678 27.9423 28.6923 20.5384 30.8077M68.1744 62.6723C68.6465 60.5476 68.8025 58.0013 68.4189 55.2687M68.1744 62.6723L75.5384 60.4231L68.4189 55.2687M68.1744 62.6723C66.3062 71.0792 54.5385 80.3112 34.3285 78.7111C31.6546 78.4994 25.8668 77.4801 25.8668 77.4801C25.8668 77.4801 16.2676 74.5303 12.0769 71C7.88615 67.4697 3.61536 62.4044 3.61536 54.0769C3.61536 45.7494 7.84616 39.2692 11.0591 36.0961C14.2721 32.9231 20.5384 30.8077 20.5384 30.8077M68.4189 55.2687C67.4406 48.3005 62.9534 40.1208 51.2516 34.63C49.9345 34.012 48.526 33.4281 47.0208 32.8837M38.5593 11.9033C43.8477 5.55717 51.6296 1.78917 58.6554 4.49948C65.6812 7.20979 65.6812 16.729 60.3927 24.1329C55.1043 31.5367 47.0208 32.8837 47.0208 32.8837M38.5593 11.9033C38.5593 11.9033 35.3864 4.49948 27.9823 3.44179C20.5783 2.38409 14.2323 7.67252 15.29 16.1341C16.3477 24.5956 20.5384 30.8077 20.5384 30.8077" stroke="#442F11" stroke-width="6.34615" stroke-linecap="round" stroke-linejoin="round"/>
<path d="M27.9423 35.0384C24.7692 32.9231 24.7691 22.3461 25.8269 19.1731M39.5769 36.0961C37.4615 32.9231 38.5192 25.5192 42.4667 22.3461" stroke="black" stroke-width="4.23077" stroke-linecap="round"/>
<circle cx="25.8269" cy="18.1154" r="4.23077" fill="black"/>
<circle cx="44.8654" cy="20.2308" r="4.23077" fill="black"/>
<path d="M18.5997 55.527L18.5983 55.5285C18.5013 55.6247 18.3448 55.6247 18.2478 55.5285L18.2464 55.527C16.5929 53.8928 15.3011 52.6114 14.4105 51.4237C13.5335 50.2543 13.1346 49.289 13.1346 48.3042C13.1346 46.6648 14.2795 45.5577 15.5673 45.5577C16.3164 45.5577 17.081 45.944 17.5921 46.593C17.7926 46.8477 18.0989 46.9964 18.4231 46.9964C18.7472 46.9964 19.0535 46.8477 19.254 46.593C19.7652 45.944 20.5297 45.5577 21.2788 45.5577C22.5666 45.5577 23.7115 46.6648 23.7115 48.3042C23.7115 49.289 23.3127 50.2543 22.4357 51.4237C21.545 52.6114 20.2532 53.8928 18.5997 55.527Z" fill="#BA5353" stroke="#BA5353" stroke-width="2.11538" stroke-linejoin="round"/>
<path d="M43.9844 55.527L43.9829 55.5285C43.8859 55.6247 43.7295 55.6247 43.6325 55.5285L43.631 55.527C41.9776 53.8928 40.6858 52.6114 39.7951 51.4237C38.9181 50.2543 38.5192 49.289 38.5192 48.3042C38.5192 46.6648 39.6641 45.5577 40.9519 45.5577C41.7011 45.5577 42.4656 45.944 42.9767 46.593C43.1773 46.8477 43.4835 46.9964 43.8077 46.9964C44.1319 46.9964 44.4381 46.8477 44.6387 46.593C45.1498 45.944 45.9143 45.5577 46.6635 45.5577C47.9513 45.5577 49.0962 46.6648 49.0962 48.3042C49.0962 49.289 48.6973 50.2543 47.8203 51.4237C46.9296 52.6114 45.6378 53.8928 43.9844 55.527Z" fill="#BA5353" stroke="#BA5353" stroke-width="2.11538" stroke-linejoin="round"/>
<path d="M26.8846 55.0769C29 58.6548 33.2308 59.7125 36.4039 55.4817" stroke="black" stroke-width="4.23077" stroke-linecap="round"/>
<defs>
<linearGradient id="paint0_linear_17_910" x1="37.1828" y1="30.8077" x2="37.1828" y2="80.0222" gradientUnits="userSpaceOnUse">
<stop stop-color="#FFCE4F"/>
<stop offset="1" stop-color="#D29335"/>
</linearGradient>
</defs>
</svg>
