<svg width="79" height="83" viewBox="0 0 79 83" fill="none" xmlns="http://www.w3.org/2000/svg">
<path d="M69.4766 56.8975C69.8603 59.6301 69.7043 62.1764 69.2321 64.3011C67.3639 72.708 55.5963 81.94 35.3862 80.3399C32.7123 80.1282 26.9245 79.1089 26.9245 79.1089C26.9245 79.1089 17.3254 76.1591 13.1346 72.6288C8.94389 69.0985 4.6731 64.0332 4.6731 55.7057C4.6731 47.3782 8.9039 40.898 12.1169 37.725C15.3298 34.5519 21.5962 32.4365 21.5962 32.4365C26.8846 31.3788 34.9337 31.1737 36.4039 31.3788C40.8073 32.138 44.7056 33.2928 48.0785 34.5125C49.5837 35.0569 50.9922 35.6408 52.3093 36.2588C64.0111 41.7496 68.4983 49.9293 69.4766 56.8975Z" fill="url(#paint0_linear_17_1063)"/>
<path d="M53.3269 37.6538C60.7308 53.0041 57.5577 69.3846 45.9231 77.8461" stroke="#875B19" stroke-width="6.34615" stroke-linecap="round" stroke-linejoin="round"/>
<path d="M38.635 12.4033C43.9234 6.05718 51.7053 2.28917 58.7311 4.99948C65.7569 7.7098 65.7569 17.2291 60.4685 24.6329C55.18 32.0367 47.0965 33.3837 47.0965 33.3837C43.7235 32.1639 39.8253 31.0092 35.4219 30.25C33.9517 30.0449 25.9026 30.25 20.6142 31.3077C20.6142 31.3077 16.4234 25.0956 15.3658 16.6341C14.3081 8.17253 20.654 2.8841 28.0581 3.94179C35.4621 4.99948 38.635 12.4033 38.635 12.4033Z" fill="white"/>
<path d="M35.3461 30.25C35.3461 30.25 33.2708 18.7495 38.5593 12.4033M35.3461 30.25C40.2354 30.9321 43.6478 32.1639 47.0208 33.3837M35.3461 30.25C30.4569 29.5678 27.9423 29.1923 20.5384 31.3077M68.1744 63.1723C68.6465 61.0476 68.8025 58.5013 68.4189 55.7687M68.1744 63.1723L75.5384 60.9231L68.4189 55.7687M68.1744 63.1723C66.3062 71.5792 54.5385 80.8112 34.3285 79.2111C31.6546 78.9994 25.8668 77.9801 25.8668 77.9801C25.8668 77.9801 16.2676 75.0303 12.0769 71.5C7.88615 67.9697 3.61536 62.9044 3.61536 54.5769C3.61536 46.2494 7.84616 39.7692 11.0591 36.5961C14.2721 33.4231 20.5384 31.3077 20.5384 31.3077M68.4189 55.7687C67.4406 48.8005 62.9534 40.6208 51.2516 35.13C49.9345 34.512 48.526 33.9281 47.0208 33.3837M38.5593 12.4033C43.8477 6.05717 51.6296 2.28917 58.6554 4.99948C65.6812 7.70979 65.6812 17.229 60.3927 24.6329C55.1043 32.0367 47.0208 33.3837 47.0208 33.3837M38.5593 12.4033C38.5593 12.4033 35.3864 4.99948 27.9823 3.94179C20.5783 2.88409 14.2323 8.17252 15.29 16.6341C16.3477 25.0956 20.5384 31.3077 20.5384 31.3077" stroke="#442F11" stroke-width="6.34615" stroke-linecap="round" stroke-linejoin="round"/>
<path d="M27.9423 35.5385C24.7692 33.4231 24.7691 22.8461 25.8269 19.6731M39.5769 36.5961C37.4615 33.4231 38.5192 26.0192 42.4667 22.8461" stroke="black" stroke-width="4.23077" stroke-linecap="round"/>
<circle cx="25.8269" cy="18.6154" r="4.23077" fill="black"/>
<circle cx="44.8654" cy="20.7308" r="4.23077" fill="black"/>
<path d="M24.7692 54.5769C24.7692 52.4615 26.8846 50.3461 29 50.3461C31.1154 50.3461 34.2885 53.5192 34.2885 55.6346C34.2885 57.75 31.1154 59.8654 29 59.8654C26.8846 59.8654 24.7692 56.6923 24.7692 54.5769Z" fill="#CA4E4E" stroke="black" stroke-width="4.23077" stroke-linecap="round" stroke-linejoin="round"/>
<path d="M12.0769 46.1154L18.4231 52.4615M18.4231 46.1154L12.0769 52.4615" stroke="black" stroke-width="4.23077" stroke-linecap="round" stroke-linejoin="round"/>
<path d="M41.6923 46.1154L48.0385 52.4615M48.0385 46.1154L41.6923 52.4615" stroke="black" stroke-width="4.23077" stroke-linecap="round" stroke-linejoin="round"/>
<defs>
<linearGradient id="paint0_linear_17_1063" x1="37.1828" y1="31.3077" x2="37.1828" y2="80.5222" gradientUnits="userSpaceOnUse">
<stop stop-color="#FFCE4F"/>
<stop offset="1" stop-color="#D29335"/>
</linearGradient>
</defs>
</svg>
