<svg width="80" height="83" viewBox="0 0 80 83" fill="none" xmlns="http://www.w3.org/2000/svg">
<path d="M69.9382 56.8975C70.3218 59.6301 70.1658 62.1764 69.6936 64.3011C67.8255 72.708 56.0578 81.94 35.8478 80.3399C33.1739 80.1282 27.3861 79.1089 27.3861 79.1089C27.3861 79.1089 17.7869 76.1591 13.5962 72.6288C9.40544 69.0985 5.13464 64.0332 5.13464 55.7057C5.13464 47.3782 9.36545 40.898 12.5784 37.725C15.7914 34.5519 22.0577 32.4365 22.0577 32.4365C27.3462 31.3788 35.3952 31.1737 36.8654 31.3788C41.2689 32.138 45.1671 33.2928 48.5401 34.5125C50.0453 35.0569 51.4538 35.6408 52.7708 36.2588C64.4727 41.7496 68.9599 49.9293 69.9382 56.8975Z" fill="url(#paint0_linear_17_1102)"/>
<path d="M53.7885 37.6538C61.1923 53.0041 58.0193 69.3846 46.3846 77.8461" stroke="#875B19" stroke-width="6.34615" stroke-linecap="round" stroke-linejoin="round"/>
<path d="M39.0965 12.4033C44.385 6.05718 52.1669 2.28917 59.1927 4.99948C66.2185 7.7098 66.2185 17.2291 60.93 24.6329C55.6416 32.0367 47.5581 33.3837 47.5581 33.3837C44.1851 32.1639 40.2868 31.0092 35.8834 30.25C34.4132 30.0449 26.3642 30.25 21.0757 31.3077C21.0757 31.3077 16.885 25.0956 15.8273 16.6341C14.7696 8.17253 21.1156 2.8841 28.5196 3.94179C35.9236 4.99948 39.0965 12.4033 39.0965 12.4033Z" fill="white"/>
<path d="M35.8077 30.25C35.8077 30.25 33.7323 18.7495 39.0208 12.4033M35.8077 30.25C40.6969 30.9321 44.1094 32.1639 47.4823 33.3837M35.8077 30.25C30.9184 29.5678 28.4038 29.1923 21 31.3077M68.6359 63.1723C69.1081 61.0476 69.2641 58.5013 68.8804 55.7687M68.6359 63.1723L76 60.9231L68.8804 55.7687M68.6359 63.1723C66.7677 71.5792 55.0001 80.8112 34.79 79.2111C32.1161 78.9994 26.3283 77.9801 26.3283 77.9801C26.3283 77.9801 16.7292 75.0303 12.5384 71.5C8.3477 67.9697 4.0769 62.9044 4.0769 54.5769C4.0769 46.2494 8.30771 39.7692 11.5207 36.5961C14.7337 33.4231 21 31.3077 21 31.3077M68.8804 55.7687C67.9022 48.8005 63.4149 40.6208 51.7131 35.13C50.396 34.512 48.9875 33.9281 47.4823 33.3837M39.0208 12.4033C44.3093 6.05717 52.0912 2.28917 59.117 4.99948C66.1428 7.70979 66.1428 17.229 60.8543 24.6329C55.5658 32.0367 47.4823 33.3837 47.4823 33.3837M39.0208 12.4033C39.0208 12.4033 35.8479 4.99948 28.4439 3.94179C21.0399 2.88409 14.6939 8.17252 15.7516 16.6341C16.8093 25.0956 21 31.3077 21 31.3077" stroke="#442F11" stroke-width="6.34615" stroke-linecap="round" stroke-linejoin="round"/>
<path d="M28.4038 35.5385C25.2308 33.4231 25.2307 22.8461 26.2884 19.6731M40.0385 36.5961C37.9231 33.4231 38.9808 26.0192 42.9282 22.8461" stroke="black" stroke-width="4.23077" stroke-linecap="round"/>
<circle cx="26.2884" cy="18.6154" r="4.23077" fill="black"/>
<circle cx="45.3269" cy="20.7308" r="4.23077" fill="black"/>
<path d="M16.7692 68.3269V48.2308H23.1154V68.3269C23.1154 70.0794 21.6947 71.5 19.9423 71.5C18.1899 71.5 16.7692 70.0794 16.7692 68.3269Z" fill="#298296"/>
<path d="M40.0385 72.5577V50.3461H46.3846V72.5577C46.3846 74.3101 44.964 75.7308 43.2115 75.7308C41.4591 75.7308 40.0385 74.3101 40.0385 72.5577Z" fill="#298296"/>
<path d="M14.6539 48.2308L25.2308 49.2885M36.8654 50.3461H46.3846" stroke="black" stroke-width="4.23077" stroke-linecap="round" stroke-linejoin="round"/>
<circle cx="31.5769" cy="58.8077" r="4.23077" fill="black"/>
<defs>
<linearGradient id="paint0_linear_17_1102" x1="37.6444" y1="31.3077" x2="37.6444" y2="80.5222" gradientUnits="userSpaceOnUse">
<stop stop-color="#FFCE4F"/>
<stop offset="1" stop-color="#D29335"/>
</linearGradient>
</defs>
</svg>
