<svg width="79" height="83" viewBox="0 0 79 83" fill="none" xmlns="http://www.w3.org/2000/svg">
<path d="M69.4766 57.0898C69.8603 59.8224 69.7043 62.3687 69.2321 64.4935C67.3639 72.9003 55.5963 82.1323 35.3862 80.5322C32.7123 80.3205 26.9245 79.3012 26.9245 79.3012C26.9245 79.3012 17.3254 76.3514 13.1346 72.8211C8.94389 69.2908 4.6731 64.2255 4.6731 55.898C4.6731 47.5706 8.9039 41.0903 12.1169 37.9173C15.3298 34.7442 21.5962 32.6288 21.5962 32.6288C26.8846 31.5711 34.9337 31.366 36.4039 31.5711C40.8073 32.3303 44.7056 33.4851 48.0785 34.7049C49.5837 35.2492 50.9922 35.8331 52.3093 36.4512C64.0111 41.942 68.4983 50.1217 69.4766 57.0898Z" fill="url(#paint0_linear_17_870)"/>
<path d="M53.3269 37.8461C60.7308 53.1964 57.5577 69.5769 45.9231 78.0385" stroke="#875B19" stroke-width="6.34615" stroke-linecap="round" stroke-linejoin="round"/>
<path d="M38.635 12.5956C43.9234 6.24949 51.7053 2.48149 58.7311 5.1918C65.7569 7.90211 65.7569 17.4214 60.4685 24.8252C55.18 32.2291 47.0965 33.5761 47.0965 33.5761C43.7235 32.3563 39.8253 31.2015 35.4219 30.4423C33.9517 30.2372 25.9026 30.4423 20.6142 31.5C20.6142 31.5 16.4234 25.2879 15.3658 16.8264C14.3081 8.36484 20.654 3.07642 28.0581 4.13411C35.4621 5.1918 38.635 12.5956 38.635 12.5956Z" fill="white"/>
<path d="M35.3461 30.4423C35.3461 30.4423 33.2708 18.9418 38.5593 12.5956M35.3461 30.4423C40.2354 31.1245 43.6478 32.3563 47.0208 33.5761M35.3461 30.4423C30.4569 29.7602 27.9423 29.3846 20.5384 31.5M68.1744 63.3646C68.6465 61.2399 68.8025 58.6936 68.4189 55.961M68.1744 63.3646L75.5384 61.1154L68.4189 55.961M68.1744 63.3646C66.3062 71.7715 54.5385 81.0035 34.3285 79.4034C31.6546 79.1917 25.8668 78.1724 25.8668 78.1724C25.8668 78.1724 16.2676 75.2226 12.0769 71.6923C7.88615 68.162 3.61536 63.0967 3.61536 54.7692C3.61536 46.4418 7.84616 39.9615 11.0591 36.7885C14.2721 33.6154 20.5384 31.5 20.5384 31.5M68.4189 55.961C67.4406 48.9928 62.9534 40.8132 51.2516 35.3223C49.9345 34.7043 48.526 34.1204 47.0208 33.5761M38.5593 12.5956C43.8477 6.24949 51.6296 2.48149 58.6554 5.1918C65.6812 7.90211 65.6812 17.4214 60.3927 24.8252C55.1043 32.2291 47.0208 33.5761 47.0208 33.5761M38.5593 12.5956C38.5593 12.5956 35.3864 5.1918 27.9823 4.13411C20.5783 3.07642 14.2323 8.36484 15.29 16.8264C16.3477 25.2879 20.5384 31.5 20.5384 31.5" stroke="#442F11" stroke-width="6.34615" stroke-linecap="round" stroke-linejoin="round"/>
<path d="M27.9423 35.7308C24.7692 33.6154 24.7691 23.0384 25.8269 19.8654M39.5769 36.7884C37.4615 33.6154 38.5192 26.2115 42.4667 23.0384" stroke="black" stroke-width="4.23077" stroke-linecap="round"/>
<circle cx="25.8269" cy="18.8077" r="4.23077" fill="black"/>
<circle cx="44.8654" cy="20.9231" r="4.23077" fill="black"/>
<path d="M22.6878 47.6616C22.1825 45.1347 17.1905 44.9129 16.3224 47.2903" stroke="black" stroke-width="4.23077" stroke-linecap="round"/>
<path d="M48.0953 50.7097C48.0953 47.952 42.5799 47.0328 41.7054 49.4188" stroke="black" stroke-width="4.23077" stroke-linecap="round"/>
<path d="M29.8066 61.0431C36.5047 61.9752 37.4615 53.586 37.4615 53.586L31.2419 53.1199L25.0223 52.6538C25.0223 52.6538 23.1086 60.1109 29.8066 61.0431Z" fill="#CA4E4E"/>
<path d="M29.8066 61.0431C36.5047 61.9752 37.4615 53.586 37.4615 53.586L31.2419 53.1199L25.0223 52.6538C25.0223 52.6538 23.1086 60.1109 29.8066 61.0431Z" stroke="black" stroke-width="3.17308" stroke-linecap="round" stroke-linejoin="round"/>
<defs>
<linearGradient id="paint0_linear_17_870" x1="37.1828" y1="31.5" x2="37.1828" y2="80.7145" gradientUnits="userSpaceOnUse">
<stop stop-color="#FFCE4F"/>
<stop offset="1" stop-color="#D29335"/>
</linearGradient>
</defs>
</svg>
