<svg width="80" height="83" viewBox="0 0 80 83" fill="none" xmlns="http://www.w3.org/2000/svg">
<path d="M69.8612 57.0898C70.2448 59.8224 70.0888 62.3687 69.6167 64.4935C67.7485 72.9003 55.9809 82.1323 35.7708 80.5322C33.0969 80.3205 27.3091 79.3012 27.3091 79.3012C27.3091 79.3012 17.71 76.3514 13.5192 72.8211C9.32847 69.2908 5.05768 64.2255 5.05768 55.898C5.05768 47.5706 9.28848 41.0903 12.5015 37.9173C15.7144 34.7442 21.9808 32.6288 21.9808 32.6288C27.2692 31.5711 35.3183 31.366 36.7885 31.5711C41.1919 32.3303 45.0901 33.4851 48.4631 34.7049C49.9683 35.2492 51.3768 35.8331 52.6939 36.4512C64.3957 41.942 68.8829 50.1217 69.8612 57.0898Z" fill="url(#paint0_linear_17_1136)"/>
<path d="M53.7115 37.8461C61.1154 53.1964 57.9423 69.5769 46.3077 78.0385" stroke="#875B19" stroke-width="6.34615" stroke-linecap="round" stroke-linejoin="round"/>
<path d="M39.0196 12.5956C44.3081 6.24949 52.09 2.48149 59.1158 5.1918C66.1416 7.90211 66.1416 17.4214 60.8531 24.8252C55.5647 32.2291 47.4812 33.5761 47.4812 33.5761C44.1082 32.3563 40.2099 31.2015 35.8065 30.4423C34.3363 30.2372 26.2873 30.4423 20.9988 31.5C20.9988 31.5 16.8081 25.2879 15.7504 16.8264C14.6927 8.36484 21.0387 3.07642 28.4427 4.13411C35.8467 5.1918 39.0196 12.5956 39.0196 12.5956Z" fill="white"/>
<path d="M35.7308 30.4423C35.7308 30.4423 33.6554 18.9418 38.9439 12.5956M35.7308 30.4423C40.62 31.1245 44.0325 32.3563 47.4054 33.5761M35.7308 30.4423C30.8415 29.7602 28.3269 29.3846 20.9231 31.5M68.559 63.3646C69.0312 61.2399 69.1872 58.6936 68.8035 55.961M68.559 63.3646L75.9231 61.1154L68.8035 55.961M68.559 63.3646C66.6908 71.7715 54.9232 81.0035 34.7131 79.4034C32.0392 79.1917 26.2514 78.1724 26.2514 78.1724C26.2514 78.1724 16.6523 75.2226 12.4615 71.6923C8.27079 68.162 4 63.0967 4 54.7692C4 46.4418 8.2308 39.9615 11.4438 36.7885C14.6567 33.6154 20.9231 31.5 20.9231 31.5M68.8035 55.961C67.8252 48.9928 63.338 40.8132 51.6362 35.3223C50.3191 34.7043 48.9106 34.1204 47.4054 33.5761M38.9439 12.5956C44.2324 6.24949 52.0142 2.48149 59.0401 5.1918C66.0659 7.90211 66.0659 17.4214 60.7774 24.8252C55.4889 32.2291 47.4054 33.5761 47.4054 33.5761M38.9439 12.5956C38.9439 12.5956 35.771 5.1918 28.367 4.13411C20.963 3.07642 14.617 8.36484 15.6747 16.8264C16.7324 25.2879 20.9231 31.5 20.9231 31.5" stroke="#442F11" stroke-width="6.34615" stroke-linecap="round" stroke-linejoin="round"/>
<path d="M28.3269 35.7308C25.1538 33.6154 25.1537 23.0384 26.2114 19.8654M39.9615 36.7884C37.8461 33.6154 38.9038 26.2115 42.8513 23.0384" stroke="black" stroke-width="4.23077" stroke-linecap="round"/>
<circle cx="26.2115" cy="18.8077" r="4.23077" fill="black"/>
<circle cx="45.25" cy="20.9231" r="4.23077" fill="black"/>
<circle cx="30.4423" cy="55.8269" r="5.28846" fill="black"/>
<circle cx="16.6923" cy="51.5384" r="5.28846" fill="white" stroke="black" stroke-width="2.11538"/>
<circle cx="44.1923" cy="51.5384" r="5.28846" fill="white" stroke="black" stroke-width="2.11538"/>
<circle cx="16.6923" cy="51.5384" r="2.11538" fill="black"/>
<circle cx="44.1923" cy="51.5384" r="2.11538" fill="black"/>
<defs>
<linearGradient id="paint0_linear_17_1136" x1="37.5674" y1="31.5" x2="37.5674" y2="80.7145" gradientUnits="userSpaceOnUse">
<stop stop-color="#FFCE4F"/>
<stop offset="1" stop-color="#D29335"/>
</linearGradient>
</defs>
</svg>
