<svg width="79" height="83" viewBox="0 0 79 83" fill="none" xmlns="http://www.w3.org/2000/svg">
<path d="M69.7074 56.3975C70.091 59.1301 69.935 61.6764 69.4629 63.8011C67.5947 72.208 55.827 81.44 35.617 79.8399C32.9431 79.6282 27.1553 78.6089 27.1553 78.6089C27.1553 78.6089 17.5562 75.6591 13.3654 72.1288C9.17466 68.5985 4.90387 63.5332 4.90387 55.2057C4.90387 46.8782 9.13467 40.398 12.3476 37.2249C15.5606 34.0519 21.8269 31.9365 21.8269 31.9365C27.1154 30.8788 35.1645 30.6737 36.6346 30.8788C41.0381 31.638 44.9363 32.7928 48.3093 34.0125C49.8145 34.5569 51.223 35.1408 52.5401 35.7588C64.2419 41.2496 68.7291 49.4293 69.7074 56.3975Z" fill="url(#paint0_linear_17_948)"/>
<path d="M53.5577 37.1538C60.9616 52.5041 57.7885 68.8846 46.1539 77.3461" stroke="#875B19" stroke-width="6.34615" stroke-linecap="round" stroke-linejoin="round"/>
<path d="M38.8658 11.9033C44.1542 5.55717 51.9361 1.78917 58.9619 4.49948C65.9877 7.20979 65.9877 16.729 60.6992 24.1329C55.4108 31.5367 47.3273 32.8837 47.3273 32.8837C43.9543 31.6639 40.0561 30.5092 35.6526 29.75C34.1824 29.5449 26.1334 29.75 20.8449 30.8077C20.8449 30.8077 16.6542 24.5956 15.5965 16.1341C14.5388 7.67252 20.8848 2.38409 28.2888 3.44179C35.6929 4.49948 38.8658 11.9033 38.8658 11.9033Z" fill="white"/>
<path d="M35.5769 29.75C35.5769 29.75 33.5016 18.2495 38.79 11.9033M35.5769 29.75C40.4662 30.4321 43.8786 31.6639 47.2516 32.8837M35.5769 29.75C30.6876 29.0678 28.1731 28.6923 20.7692 30.8077M68.4051 62.6723C68.8773 60.5476 69.0333 58.0013 68.6497 55.2687M68.4051 62.6723L75.7692 60.4231L68.6497 55.2687M68.4051 62.6723C66.5369 71.0792 54.7693 80.3112 34.5593 78.7111C31.8853 78.4994 26.0975 77.4801 26.0975 77.4801C26.0975 77.4801 16.4984 74.5303 12.3077 71C8.11692 67.4697 3.84613 62.4044 3.84613 54.0769C3.84613 45.7494 8.07693 39.2692 11.2899 36.0961C14.5029 32.9231 20.7692 30.8077 20.7692 30.8077M68.6497 55.2687C67.6714 48.3005 63.1841 40.1208 51.4823 34.63C50.1652 34.012 48.7568 33.4281 47.2516 32.8837M38.79 11.9033C44.0785 5.55717 51.8604 1.78917 58.8862 4.49948C65.912 7.20979 65.912 16.729 60.6235 24.1329C55.3351 31.5367 47.2516 32.8837 47.2516 32.8837M38.79 11.9033C38.79 11.9033 35.6171 4.49948 28.2131 3.44179C20.8091 2.38409 14.4631 7.67252 15.5208 16.1341C16.5785 24.5956 20.7692 30.8077 20.7692 30.8077" stroke="#442F11" stroke-width="6.34615" stroke-linecap="round" stroke-linejoin="round"/>
<path d="M28.1731 35.0384C25 32.9231 24.9999 22.3461 26.0576 19.1731M39.8077 36.0961C37.6923 32.9231 38.75 25.5192 42.6975 22.3461" stroke="black" stroke-width="4.23077" stroke-linecap="round"/>
<circle cx="26.0577" cy="18.1154" r="4.23077" fill="black"/>
<circle cx="45.0961" cy="20.2308" r="4.23077" fill="black"/>
<circle cx="44.0384" cy="51.9615" r="4.23077" fill="black"/>
<path d="M25 52.6144C27.1154 56.1923 31.3462 57.25 34.5192 53.0192" stroke="black" stroke-width="4.23077" stroke-linecap="round"/>
<path d="M14.4231 47.7308L19.7116 50.9038L14.4231 54.0769" stroke="black" stroke-width="4.23077" stroke-linecap="round" stroke-linejoin="round"/>
<defs>
<linearGradient id="paint0_linear_17_948" x1="37.4136" y1="30.8077" x2="37.4136" y2="80.0222" gradientUnits="userSpaceOnUse">
<stop stop-color="#FFCE4F"/>
<stop offset="1" stop-color="#D29335"/>
</linearGradient>
</defs>
</svg>
