<svg width="80" height="83" viewBox="0 0 80 83" fill="none" xmlns="http://www.w3.org/2000/svg">
<path d="M69.9766 56.5898C70.3603 59.3224 70.2043 61.8687 69.7321 63.9934C67.8639 72.4003 56.0963 81.6323 35.8862 80.0322C33.2123 79.8205 27.4245 78.8012 27.4245 78.8012C27.4245 78.8012 17.8254 75.8514 13.6346 72.3211C9.44389 68.7908 5.1731 63.7255 5.1731 55.398C5.1731 47.0706 9.4039 40.5903 12.6169 37.4173C15.8298 34.2442 22.0962 32.1288 22.0962 32.1288C27.3846 31.0711 35.4337 30.866 36.9039 31.0711C41.3073 31.8303 45.2056 32.9851 48.5785 34.2049C50.0837 34.7492 51.4922 35.3331 52.8093 35.9512C64.5111 41.442 68.9983 49.6217 69.9766 56.5898Z" fill="url(#paint0_linear_17_965)"/>
<path d="M53.8269 37.3461C61.2308 52.6964 58.0577 69.0769 46.4231 77.5385" stroke="#875B19" stroke-width="6.34615" stroke-linecap="round" stroke-linejoin="round"/>
<path d="M39.135 12.0956C44.4234 5.74949 52.2053 1.98148 59.2311 4.69179C66.2569 7.4021 66.2569 16.9214 60.9685 24.3252C55.68 31.7291 47.5965 33.076 47.5965 33.076C44.2235 31.8563 40.3253 30.7015 35.9219 29.9423C34.4517 29.7372 26.4026 29.9423 21.1142 31C21.1142 31 16.9234 24.7879 15.8658 16.3264C14.8081 7.86484 21.154 2.57641 28.5581 3.6341C35.9621 4.69179 39.135 12.0956 39.135 12.0956Z" fill="white"/>
<path d="M35.8461 29.9423C35.8461 29.9423 33.7708 18.4418 39.0593 12.0956M35.8461 29.9423C40.7354 30.6245 44.1478 31.8563 47.5208 33.0761M35.8461 29.9423C30.9569 29.2602 28.4423 28.8846 21.0384 31M68.6744 62.8646C69.1465 60.7399 69.3025 58.1936 68.9189 55.461M68.6744 62.8646L76.0384 60.6154L68.9189 55.461M68.6744 62.8646C66.8062 71.2715 55.0385 80.5035 34.8285 78.9034C32.1546 78.6917 26.3668 77.6724 26.3668 77.6724C26.3668 77.6724 16.7676 74.7226 12.5769 71.1923C8.38615 67.662 4.11536 62.5967 4.11536 54.2692C4.11536 45.9418 8.34616 39.4615 11.5591 36.2885C14.7721 33.1154 21.0384 31 21.0384 31M68.9189 55.461C67.9406 48.4928 63.4534 40.3132 51.7516 34.8223C50.4345 34.2043 49.026 33.6204 47.5208 33.0761M39.0593 12.0956C44.3477 5.74949 52.1296 1.98149 59.1554 4.6918C66.1812 7.40211 66.1812 16.9214 60.8927 24.3252C55.6043 31.7291 47.5208 33.0761 47.5208 33.0761M39.0593 12.0956C39.0593 12.0956 35.8864 4.6918 28.4823 3.63411C21.0783 2.57642 14.7323 7.86484 15.79 16.3264C16.8477 24.7879 21.0384 31 21.0384 31" stroke="#442F11" stroke-width="6.34615" stroke-linecap="round" stroke-linejoin="round"/>
<path d="M28.4423 35.2308C25.2692 33.1154 25.2691 22.5385 26.3269 19.3654M40.0769 36.2885C37.9615 33.1154 39.0192 25.7115 42.9667 22.5385" stroke="black" stroke-width="4.23077" stroke-linecap="round"/>
<circle cx="26.3269" cy="18.3077" r="4.23077" fill="black"/>
<circle cx="45.3654" cy="20.4231" r="4.23077" fill="black"/>
<circle cx="46.4231" cy="52.1538" r="4.23077" fill="black"/>
<path d="M27.3846 54.2692L36.9039 54.674" stroke="black" stroke-width="4.23077" stroke-linecap="round"/>
<circle cx="18.9231" cy="50.0385" r="4.23077" fill="black"/>
<defs>
<linearGradient id="paint0_linear_17_965" x1="37.6828" y1="31" x2="37.6828" y2="80.2145" gradientUnits="userSpaceOnUse">
<stop stop-color="#FFCE4F"/>
<stop offset="1" stop-color="#D29335"/>
</linearGradient>
</defs>
</svg>
