<svg width="80" height="83" viewBox="0 0 80 83" fill="none" xmlns="http://www.w3.org/2000/svg">
<path d="M69.8613 57.0898C70.2449 59.8224 70.0889 62.3687 69.6167 64.4935C67.7486 72.9003 55.9809 82.1323 35.7709 80.5322C33.097 80.3205 27.3092 79.3012 27.3092 79.3012C27.3092 79.3012 17.71 76.3514 13.5193 72.8211C9.32853 69.2908 5.05774 64.2255 5.05774 55.898C5.05774 47.5706 9.28854 41.0903 12.5015 37.9173C15.7145 34.7442 21.9808 32.6288 21.9808 32.6288C27.2693 31.5711 35.3183 31.366 36.7885 31.5711C41.192 32.3303 45.0902 33.4851 48.4632 34.7049C49.9684 35.2492 51.3768 35.8331 52.6939 36.4512C64.3957 41.942 68.883 50.1217 69.8613 57.0898Z" fill="url(#paint0_linear_17_1186)"/>
<path d="M53.7116 37.8462C61.1154 53.1964 57.9424 69.5769 46.3077 78.0385" stroke="#875B19" stroke-width="6.34615" stroke-linecap="round" stroke-linejoin="round"/>
<path d="M39.0196 12.5957C44.3081 6.2495 52.09 2.4815 59.1158 5.19181C66.1416 7.90212 66.1416 17.4214 60.8531 24.8252C55.5647 32.2291 47.4812 33.5761 47.4812 33.5761C44.1082 32.3563 40.2099 31.2015 35.8065 30.4423C34.3363 30.2372 26.2873 30.4423 20.9988 31.5C20.9988 31.5 16.8081 25.2879 15.7504 16.8264C14.6927 8.36485 21.0387 3.07642 28.4427 4.13412C35.8467 5.19181 39.0196 12.5957 39.0196 12.5957Z" fill="white"/>
<path d="M35.7308 30.4423C35.7308 30.4423 33.6554 18.9418 38.9439 12.5956M35.7308 30.4423C40.62 31.1245 44.0325 32.3563 47.4054 33.5761M35.7308 30.4423C30.8415 29.7602 28.3269 29.3846 20.9231 31.5M68.559 63.3646C69.0312 61.2399 69.1872 58.6936 68.8035 55.961M68.559 63.3646L75.9231 61.1154L68.8035 55.961M68.559 63.3646C66.6908 71.7715 54.9232 81.0035 34.7131 79.4034C32.0392 79.1917 26.2514 78.1724 26.2514 78.1724C26.2514 78.1724 16.6523 75.2226 12.4615 71.6923C8.27079 68.162 4 63.0967 4 54.7692C4 46.4418 8.2308 39.9615 11.4438 36.7885C14.6567 33.6154 20.9231 31.5 20.9231 31.5M68.8035 55.961C67.8252 48.9928 63.338 40.8132 51.6362 35.3223C50.3191 34.7043 48.9106 34.1204 47.4054 33.5761M38.9439 12.5956C44.2324 6.24949 52.0142 2.48149 59.0401 5.1918C66.0659 7.90211 66.0659 17.4214 60.7774 24.8252C55.4889 32.2291 47.4054 33.5761 47.4054 33.5761M38.9439 12.5956C38.9439 12.5956 35.771 5.1918 28.367 4.13411C20.963 3.07642 14.617 8.36484 15.6747 16.8264C16.7324 25.2879 20.9231 31.5 20.9231 31.5" stroke="#442F11" stroke-width="6.34615" stroke-linecap="round" stroke-linejoin="round"/>
<path d="M28.3269 35.7308C25.1539 33.6154 25.1538 23.0385 26.2115 19.8654M39.9616 36.7885C37.8462 33.6154 38.9039 26.2115 42.8513 23.0385" stroke="black" stroke-width="4.23077" stroke-linecap="round"/>
<circle cx="26.2115" cy="18.8077" r="4.23077" fill="black"/>
<circle cx="45.2501" cy="20.9231" r="4.23077" fill="black"/>
<circle cx="17.2308" cy="52.2308" r="4.23077" fill="black"/>
<circle cx="44.7308" cy="52.2308" r="4.23077" fill="black"/>
<path d="M25.615 55.5C25.615 54.6081 24.8919 53.885 24 53.885C23.108 53.885 22.385 54.6081 22.385 55.5L25.615 55.5ZM31.5 57L33.0828 56.6789C32.9457 56.0035 32.3953 55.4895 31.7121 55.399C31.029 55.3085 30.3637 55.6614 30.0555 56.2778L31.5 57ZM40.791 55.8779C40.7251 54.9884 39.9506 54.3207 39.0611 54.3867C38.1716 54.4526 37.5039 55.2272 37.5699 56.1167L40.791 55.8779ZM24 55.5C22.385 55.5 22.385 55.5006 22.385 55.5012C22.385 55.5015 22.385 55.5021 22.385 55.5026C22.385 55.5035 22.385 55.5045 22.385 55.5055C22.385 55.5076 22.385 55.5099 22.385 55.5125C22.3851 55.5177 22.3851 55.5238 22.3852 55.531C22.3854 55.5453 22.3857 55.5635 22.3862 55.5853C22.3873 55.629 22.3893 55.6875 22.3931 55.7588C22.4007 55.901 22.4153 56.0966 22.444 56.3291C22.5004 56.7868 22.6152 57.4234 22.8567 58.0896C23.3328 59.4033 24.4627 61.1757 26.8708 61.369L27.1292 58.1494C26.5373 58.1018 26.1672 57.7447 25.8934 56.989C25.7598 56.6204 25.6871 56.2375 25.6498 55.9342C25.6315 55.7862 25.6227 55.666 25.6186 55.5875C25.6165 55.5485 25.6156 55.5204 25.6152 55.5051C25.615 55.4974 25.615 55.493 25.615 55.4921C25.615 55.4916 25.615 55.492 25.615 55.4933C25.615 55.494 25.615 55.4949 25.615 55.496C25.615 55.4965 25.615 55.4971 25.615 55.4978C25.615 55.4981 25.615 55.4987 25.615 55.4989C25.615 55.4994 25.615 55.5 24 55.5ZM26.8708 61.369C28.9867 61.5389 30.5424 60.5478 31.4934 59.635C31.9702 59.1773 32.3228 58.7156 32.5569 58.3692C32.675 58.1944 32.7659 58.0446 32.8299 57.9332C32.862 57.8774 32.8875 57.8308 32.9066 57.7952C32.9161 57.7774 32.924 57.7623 32.9303 57.7501C32.9335 57.744 32.9363 57.7386 32.9386 57.7339C32.9398 57.7316 32.9409 57.7295 32.9419 57.7275C32.9423 57.7265 32.9428 57.7256 32.9432 57.7247C32.9435 57.7243 32.9438 57.7237 32.9439 57.7235C32.9442 57.7229 32.9445 57.7223 31.5 57C30.0555 56.2778 30.0558 56.2772 30.0561 56.2766C30.0562 56.2764 30.0564 56.2759 30.0566 56.2755C30.057 56.2748 30.0573 56.2742 30.0576 56.2736C30.0582 56.2724 30.0587 56.2713 30.0592 56.2704C30.0601 56.2687 30.0606 56.2676 30.0609 56.2671C30.0613 56.2663 30.0605 56.268 30.0583 56.2721C30.0539 56.2803 30.0443 56.298 30.0295 56.3237C29.9997 56.3754 29.95 56.4581 29.8806 56.5608C29.7397 56.7693 29.5298 57.0426 29.2566 57.3048C28.7076 57.8318 28.0133 58.2203 27.1292 58.1494L26.8708 61.369ZM31.5 57C29.9172 57.3211 29.9174 57.322 29.9176 57.323C29.9177 57.3233 29.9179 57.3242 29.918 57.3249C29.9183 57.3262 29.9186 57.3276 29.9189 57.329C29.9194 57.3318 29.9201 57.3348 29.9208 57.3381C29.9221 57.3445 29.9237 57.3517 29.9255 57.3597C29.929 57.3757 29.9334 57.3947 29.9388 57.4166C29.9495 57.4604 29.9639 57.5157 29.9829 57.581C30.0208 57.7112 30.0774 57.8832 30.1592 58.0825C30.3212 58.4771 30.5919 59.0033 31.0316 59.5237C31.9644 60.6277 33.5301 61.5452 35.8964 61.3698L35.6576 58.1486C34.3618 58.2447 33.789 57.7826 33.4988 57.4391C33.327 57.2358 33.2151 57.0212 33.1474 56.8561C33.1143 56.7755 33.0943 56.7129 33.0842 56.6784C33.0793 56.6613 33.0769 56.6518 33.0768 56.6513C33.0767 56.6511 33.0773 56.6531 33.0783 56.6576C33.0788 56.6599 33.0794 56.6628 33.0801 56.6663C33.0805 56.6681 33.0809 56.67 33.0814 56.6721C33.0816 56.6732 33.0818 56.6743 33.082 56.6754C33.0822 56.6759 33.0823 56.6768 33.0824 56.6771C33.0826 56.678 33.0828 56.6789 31.5 57ZM35.8964 61.3698C37.0784 61.2821 38.0516 60.9231 38.8183 60.3522C39.579 59.7858 40.0486 59.0767 40.3338 58.4189C40.6155 57.7693 40.7266 57.1506 40.7707 56.7067C40.7932 56.4811 40.7993 56.2902 40.7994 56.1491C40.7995 56.0782 40.798 56.0191 40.7962 55.9735C40.7954 55.9507 40.7944 55.9312 40.7935 55.9152C40.793 55.9072 40.7926 55.9 40.7922 55.8938C40.792 55.8907 40.7918 55.8878 40.7916 55.8852C40.7915 55.8838 40.7914 55.8826 40.7913 55.8813C40.7913 55.8807 40.7912 55.8799 40.7912 55.8796C40.7911 55.8787 40.791 55.8779 39.1805 55.9973C37.5699 56.1167 37.5698 56.1159 37.5698 56.1151C37.5697 56.1148 37.5697 56.114 37.5697 56.1135C37.5696 56.1125 37.5695 56.1116 37.5694 56.1107C37.5693 56.1088 37.5692 56.1072 37.5691 56.1058C37.5689 56.1029 37.5688 56.1008 37.5687 56.0994C37.5686 56.0967 37.5686 56.0968 37.5687 56.0996C37.5689 56.1052 37.5694 56.1214 37.5694 56.1465C37.5694 56.1973 37.5671 56.2812 37.5566 56.3871C37.5348 56.6061 37.4818 56.877 37.3704 57.1339C37.2625 57.3827 37.1101 57.5971 36.8893 57.7615C36.6745 57.9214 36.3068 58.1005 35.6576 58.1486L35.8964 61.3698Z" fill="black"/>
<defs>
<linearGradient id="paint0_linear_17_1186" x1="37.5674" y1="31.5" x2="37.5674" y2="80.7145" gradientUnits="userSpaceOnUse">
<stop stop-color="#FFCE4F"/>
<stop offset="1" stop-color="#D29335"/>
</linearGradient>
</defs>
</svg>
