<svg width="79" height="83" viewBox="0 0 79 83" fill="none" xmlns="http://www.w3.org/2000/svg">
<path d="M69.3227 56.8975C69.7064 59.6301 69.5504 62.1764 69.0782 64.3011C67.21 72.708 55.4424 81.94 35.2324 80.3399C32.5584 80.1282 26.7706 79.1089 26.7706 79.1089C26.7706 79.1089 17.1715 76.1591 12.9808 72.6288C8.79002 69.0985 4.51923 64.0332 4.51923 55.7057C4.51923 47.3782 8.75003 40.898 11.963 37.725C15.176 34.5519 21.4423 32.4365 21.4423 32.4365C26.7308 31.3788 34.7798 31.1737 36.25 31.3788C40.6534 32.138 44.5517 33.2928 47.9247 34.5125C49.4298 35.0569 50.8383 35.6408 52.1554 36.2588C63.8572 41.7496 68.3445 49.9293 69.3227 56.8975Z" fill="url(#paint0_linear_17_1085)"/>
<path d="M53.1731 37.6538C60.5769 53.0041 57.4038 69.3846 45.7692 77.8461" stroke="#875B19" stroke-width="6.34615" stroke-linecap="round" stroke-linejoin="round"/>
<path d="M38.4811 12.4033C43.7696 6.05718 51.5515 2.28917 58.5773 4.99948C65.6031 7.7098 65.6031 17.2291 60.3146 24.6329C55.0261 32.0367 46.9426 33.3837 46.9426 33.3837C43.5697 32.1639 39.6714 31.0092 35.268 30.25C33.7978 30.0449 25.7487 30.25 20.4603 31.3077C20.4603 31.3077 16.2696 25.0956 15.2119 16.6341C14.1542 8.17253 20.5002 2.8841 27.9042 3.94179C35.3082 4.99948 38.4811 12.4033 38.4811 12.4033Z" fill="white"/>
<path d="M35.1923 30.25C35.1923 30.25 33.117 18.7495 38.4055 12.4033M35.1923 30.25C40.0816 30.9321 43.494 32.1639 46.867 33.3837M35.1923 30.25C30.3031 29.5678 27.7885 29.1923 20.3846 31.3077M68.0205 63.1723C68.4927 61.0476 68.6487 58.5013 68.2651 55.7687M68.0205 63.1723L75.3846 60.9231L68.2651 55.7687M68.0205 63.1723C66.1524 71.5792 54.3847 80.8112 34.1747 79.2111C31.5008 78.9994 25.713 77.9801 25.713 77.9801C25.713 77.9801 16.1138 75.0303 11.9231 71.5C7.73234 67.9697 3.46155 62.9044 3.46155 54.5769C3.46155 46.2494 7.69235 39.7692 10.9053 36.5961C14.1183 33.4231 20.3846 31.3077 20.3846 31.3077M68.2651 55.7687C67.2868 48.8005 62.7996 40.6208 51.0978 35.13C49.7807 34.512 48.3722 33.9281 46.867 33.3837M38.4055 12.4033C43.6939 6.05717 51.4758 2.28917 58.5016 4.99948C65.5274 7.70979 65.5274 17.229 60.2389 24.6329C54.9505 32.0367 46.867 33.3837 46.867 33.3837M38.4055 12.4033C38.4055 12.4033 35.2326 4.99948 27.8285 3.94179C20.4245 2.88409 14.0785 8.17252 15.1362 16.6341C16.1939 25.0956 20.3846 31.3077 20.3846 31.3077" stroke="#442F11" stroke-width="6.34615" stroke-linecap="round" stroke-linejoin="round"/>
<path d="M27.7884 35.5385C24.6154 33.4231 24.6152 22.8461 25.673 19.6731M39.423 36.5961C37.3077 33.4231 38.3654 26.0192 42.3128 22.8461" stroke="black" stroke-width="4.23077" stroke-linecap="round"/>
<circle cx="25.6731" cy="18.6154" r="4.23077" fill="black"/>
<circle cx="44.7115" cy="20.7308" r="4.23077" fill="black"/>
<circle cx="19.5849" cy="51.9568" r="3.17308" transform="rotate(23.2854 19.5849 51.9568)" fill="black"/>
<circle cx="3.17308" cy="3.17308" r="3.17308" transform="matrix(-0.918547 0.395312 0.395312 0.918547 45.2523 47.7879)" fill="black"/>
<path d="M14.0385 46.1154L22.7823 49.8784" stroke="black" stroke-width="4.23077" stroke-linecap="round" stroke-linejoin="round"/>
<path d="M49.1384 46.1154L40.3946 49.8784" stroke="black" stroke-width="4.23077" stroke-linecap="round" stroke-linejoin="round"/>
<path d="M36.248 57.9261C34.206 54.3059 29.9976 53.1623 26.739 57.3276" stroke="black" stroke-width="4.23077" stroke-linecap="round"/>
<defs>
<linearGradient id="paint0_linear_17_1085" x1="37.0289" y1="31.3077" x2="37.0289" y2="80.5222" gradientUnits="userSpaceOnUse">
<stop stop-color="#FFCE4F"/>
<stop offset="1" stop-color="#D29335"/>
</linearGradient>
</defs>
</svg>
