<svg width="80" height="83" viewBox="0 0 80 83" fill="none" xmlns="http://www.w3.org/2000/svg">
<path d="M69.8613 57.0898C70.2449 59.8224 70.0889 62.3687 69.6167 64.4935C67.7486 72.9003 55.9809 82.1323 35.7709 80.5322C33.097 80.3205 27.3092 79.3012 27.3092 79.3012C27.3092 79.3012 17.71 76.3514 13.5193 72.8211C9.32853 69.2908 5.05774 64.2255 5.05774 55.898C5.05774 47.5706 9.28854 41.0903 12.5015 37.9173C15.7145 34.7442 21.9808 32.6288 21.9808 32.6288C27.2693 31.5711 35.3183 31.366 36.7885 31.5711C41.192 32.3303 45.0902 33.4851 48.4632 34.7049C49.9684 35.2492 51.3768 35.8331 52.6939 36.4512C64.3957 41.942 68.883 50.1217 69.8613 57.0898Z" fill="url(#paint0_linear_17_1171)"/>
<path d="M53.7116 37.8462C61.1154 53.1964 57.9424 69.5769 46.3077 78.0385" stroke="#875B19" stroke-width="6.34615" stroke-linecap="round" stroke-linejoin="round"/>
<path d="M39.0196 12.5957C44.3081 6.2495 52.09 2.4815 59.1158 5.19181C66.1416 7.90212 66.1416 17.4214 60.8531 24.8252C55.5647 32.2291 47.4812 33.5761 47.4812 33.5761C44.1082 32.3563 40.2099 31.2015 35.8065 30.4423C34.3363 30.2372 26.2873 30.4423 20.9988 31.5C20.9988 31.5 16.8081 25.2879 15.7504 16.8264C14.6927 8.36485 21.0387 3.07642 28.4427 4.13412C35.8467 5.19181 39.0196 12.5957 39.0196 12.5957Z" fill="white"/>
<path d="M35.7308 30.4423C35.7308 30.4423 33.6554 18.9418 38.9439 12.5956M35.7308 30.4423C40.62 31.1245 44.0325 32.3563 47.4054 33.5761M35.7308 30.4423C30.8415 29.7602 28.3269 29.3846 20.9231 31.5M68.559 63.3646C69.0312 61.2399 69.1872 58.6936 68.8035 55.961M68.559 63.3646L75.9231 61.1154L68.8035 55.961M68.559 63.3646C66.6908 71.7715 54.9232 81.0035 34.7131 79.4034C32.0392 79.1917 26.2514 78.1724 26.2514 78.1724C26.2514 78.1724 16.6523 75.2226 12.4615 71.6923C8.27079 68.162 4 63.0967 4 54.7692C4 46.4418 8.2308 39.9615 11.4438 36.7885C14.6567 33.6154 20.9231 31.5 20.9231 31.5M68.8035 55.961C67.8252 48.9928 63.338 40.8132 51.6362 35.3223C50.3191 34.7043 48.9106 34.1204 47.4054 33.5761M38.9439 12.5956C44.2324 6.24949 52.0142 2.48149 59.0401 5.1918C66.0659 7.90211 66.0659 17.4214 60.7774 24.8252C55.4889 32.2291 47.4054 33.5761 47.4054 33.5761M38.9439 12.5956C38.9439 12.5956 35.771 5.1918 28.367 4.13411C20.963 3.07642 14.617 8.36484 15.6747 16.8264C16.7324 25.2879 20.9231 31.5 20.9231 31.5" stroke="#442F11" stroke-width="6.34615" stroke-linecap="round" stroke-linejoin="round"/>
<path d="M28.3269 35.7308C25.1539 33.6154 25.1538 23.0385 26.2115 19.8654M39.9616 36.7885C37.8462 33.6154 38.9039 26.2115 42.8513 23.0385" stroke="black" stroke-width="4.23077" stroke-linecap="round"/>
<circle cx="26.2115" cy="18.8077" r="4.23077" fill="black"/>
<circle cx="45.2501" cy="20.9231" r="4.23077" fill="black"/>
<path d="M16 50C17.5556 52.2673 20.6667 52.9376 23 50.2565" stroke="black" stroke-width="4.23077" stroke-linecap="round"/>
<path d="M37 51C38.5556 53.2673 41.6667 53.9376 44 51.2565" stroke="black" stroke-width="4.23077" stroke-linecap="round"/>
<path d="M31.1083 58.5668C31.9736 58.7831 32.8505 58.257 33.0668 57.3917C33.2831 56.5264 32.757 55.6495 31.8917 55.4332L31.1083 58.5668ZM30 60.5L30.2655 62.093C31.0345 61.9648 31.6022 61.3056 31.6148 60.526C31.6274 59.7465 31.0812 59.0693 30.3167 58.9164L30 60.5ZM30.5 66.615C31.3919 66.615 32.115 65.8919 32.115 65C32.115 64.1081 31.3919 63.385 30.5 63.385L30.5 66.615ZM31.5 57C31.8917 55.4332 31.8913 55.4331 31.8909 55.433C31.8908 55.433 31.8904 55.4329 31.8901 55.4328C31.8895 55.4327 31.8888 55.4325 31.8881 55.4323C31.8866 55.4319 31.8849 55.4315 31.8829 55.431C31.879 55.4301 31.8741 55.4289 31.8683 55.4275C31.8566 55.4246 31.8411 55.4209 31.822 55.4165C31.7839 55.4076 31.7314 55.3957 31.6665 55.3818C31.537 55.354 31.3562 55.3179 31.1405 55.282C30.7179 55.2115 30.1221 55.135 29.5 55.135C28.9175 55.135 28.1152 55.1993 27.4027 55.5555C27.0237 55.745 26.6267 56.0391 26.3281 56.487C26.0228 56.945 25.885 57.4674 25.885 58H29.115C29.115 58.0326 29.1022 58.1488 29.0156 58.2787C28.9358 58.3984 28.8513 58.4425 28.8473 58.4445C28.8457 58.4453 28.8589 58.4386 28.8918 58.4287C28.9245 58.4189 28.9704 58.4078 29.0311 58.3977C29.1554 58.377 29.313 58.365 29.5 58.365C29.8779 58.365 30.2821 58.4134 30.6095 58.468C30.7688 58.4946 30.9005 58.521 30.9897 58.5401C31.0342 58.5496 31.0676 58.5572 31.0881 58.562C31.0983 58.5644 31.1053 58.5661 31.1088 58.5669C31.1105 58.5673 31.1113 58.5675 31.1113 58.5675C31.1112 58.5675 31.111 58.5674 31.1105 58.5673C31.1102 58.5673 31.1099 58.5672 31.1096 58.5671C31.1094 58.567 31.1091 58.567 31.109 58.5669C31.1087 58.5669 31.1083 58.5668 31.5 57ZM25.885 58C25.885 59.8027 27.0508 60.8639 27.9191 61.3848C28.3611 61.65 28.7891 61.8196 29.0987 61.9227C29.2563 61.9753 29.3905 62.013 29.4904 62.0387C29.5405 62.0516 29.5824 62.0616 29.6149 62.0689C29.6312 62.0726 29.6451 62.0757 29.6565 62.0781C29.6622 62.0793 29.6673 62.0804 29.6718 62.0813C29.674 62.0818 29.6761 62.0822 29.678 62.0826C29.679 62.0828 29.6799 62.083 29.6808 62.0831C29.6812 62.0832 29.6818 62.0833 29.6821 62.0834C29.6827 62.0835 29.6833 62.0836 30 60.5C30.3167 58.9164 30.3173 58.9165 30.3179 58.9166C30.3181 58.9166 30.3186 58.9167 30.319 58.9168C30.3197 58.917 30.3204 58.9171 30.3211 58.9172C30.3224 58.9175 30.3235 58.9177 30.3246 58.9179C30.3266 58.9184 30.3281 58.9187 30.3291 58.9189C30.3311 58.9193 30.331 58.9193 30.3289 58.9188C30.3248 58.9179 30.313 58.9152 30.2948 58.9105C30.2579 58.901 30.1969 58.8841 30.1201 58.8585C29.9609 58.8054 29.7639 58.7249 29.5809 58.6151C29.1992 58.3861 29.115 58.1973 29.115 58H25.885ZM30 60.5C29.7345 58.907 29.734 58.9071 29.7334 58.9071C29.7333 58.9072 29.7327 58.9073 29.7323 58.9073C29.7316 58.9075 29.7307 58.9076 29.7299 58.9077C29.7282 58.908 29.7262 58.9084 29.7241 58.9087C29.7199 58.9094 29.715 58.9103 29.7093 58.9113C29.6979 58.9133 29.6836 58.9159 29.6665 58.9192C29.6325 58.9256 29.5874 58.9345 29.5327 58.9462C29.4237 58.9696 29.2748 59.0044 29.099 59.0533C28.7535 59.1493 28.2738 59.3075 27.7777 59.5555C26.8742 60.0073 25.385 61.0465 25.385 63H28.615C28.615 62.9535 28.6258 62.7427 29.2223 62.4445C29.4762 62.3175 29.7465 62.2257 29.9635 62.1654C30.0689 62.1362 30.1544 62.1163 30.2095 62.1045C30.2368 62.0987 30.2562 62.0949 30.2661 62.093C30.271 62.0921 30.2735 62.0916 30.2735 62.0917C30.2735 62.0917 30.2729 62.0918 30.2715 62.092C30.2709 62.0921 30.27 62.0923 30.269 62.0924C30.2685 62.0925 30.268 62.0926 30.2674 62.0927C30.2671 62.0927 30.2666 62.0928 30.2665 62.0929C30.266 62.0929 30.2655 62.093 30 60.5ZM25.385 63C25.385 64.0459 25.8704 64.8464 26.4958 65.3824C27.0734 65.8775 27.7608 66.147 28.3063 66.3029C28.8706 66.4641 29.4131 66.5396 29.8 66.5765C29.9973 66.5953 30.1635 66.6048 30.2837 66.6097C30.3441 66.6122 30.3934 66.6135 30.4299 66.6142C30.4482 66.6146 30.4633 66.6148 30.4751 66.6149C30.4809 66.6149 30.486 66.615 30.4901 66.615C30.4922 66.615 30.4941 66.615 30.4957 66.615C30.4966 66.615 30.4973 66.615 30.498 66.615C30.4984 66.615 30.4989 66.615 30.4991 66.615C30.4995 66.615 30.5 66.615 30.5 65C30.5 63.385 30.5004 63.385 30.5009 63.385C30.501 63.385 30.5014 63.385 30.5016 63.385C30.5021 63.385 30.5026 63.385 30.503 63.385C30.5038 63.385 30.5044 63.385 30.5048 63.385C30.5056 63.385 30.5056 63.385 30.5048 63.385C30.5033 63.385 30.4988 63.3849 30.4914 63.3848C30.4767 63.3845 30.4508 63.3839 30.4155 63.3824C30.3444 63.3795 30.2371 63.3735 30.1062 63.361C29.8369 63.3354 29.5044 63.2859 29.1937 63.1971C28.8642 63.103 28.6766 62.9975 28.5979 62.93C28.5686 62.9049 28.5788 62.9057 28.5949 62.9379C28.6139 62.9759 28.615 63.005 28.615 63H25.385Z" fill="black"/>
<defs>
<linearGradient id="paint0_linear_17_1171" x1="37.5674" y1="31.5" x2="37.5674" y2="80.7145" gradientUnits="userSpaceOnUse">
<stop stop-color="#FFCE4F"/>
<stop offset="1" stop-color="#D29335"/>
</linearGradient>
</defs>
</svg>
