<svg width="89" height="45" viewBox="0 0 89 45" fill="none" xmlns="http://www.w3.org/2000/svg">
<path d="M21.8911 35.8978C22.0608 35.8978 22.1881 35.9826 22.2729 36.1523C22.3748 36.339 22.4257 36.5766 22.4257 36.8651C22.4257 37.4081 22.2814 37.9427 21.9929 38.4687C21.416 39.5209 20.6523 40.3269 19.702 40.8869C18.7687 41.4639 17.8099 41.7524 16.8256 41.7524C15.8244 41.7524 14.9844 41.5912 14.3056 41.2688C13.6268 40.9633 13.0498 40.4966 12.5747 39.8687C12.0995 39.2578 11.6413 38.4433 11.2001 37.4251C10.7419 36.3729 10.3601 35.5838 10.0546 35.0578C9.76615 34.5487 9.4607 34.1754 9.13827 33.9378C8.81584 33.7002 8.40008 33.5305 7.89098 33.4287C6.00733 33.0553 4.48853 32.122 3.33458 30.6287C2.1976 29.1353 1.62911 27.2092 1.62911 24.8504C1.62911 22.271 2.09578 19.997 3.02912 18.0285C3.97943 16.06 5.26066 14.5412 6.87279 13.4721C8.5019 12.403 10.3007 11.8685 12.2692 11.8685C13.7795 11.8685 15.1371 12.2079 16.342 12.8867C17.5638 13.5655 18.5311 14.5667 19.2438 15.8903C19.9566 17.197 20.3129 18.7667 20.3129 20.5995C20.3129 22.7377 19.9905 24.6637 19.3456 26.3777C18.7008 28.0917 17.8099 29.5171 16.6729 30.6541C15.5359 31.7911 14.2292 32.5972 12.7528 33.0723C13.1771 33.3099 13.5419 33.6578 13.8474 34.116C14.1698 34.5741 14.5092 35.236 14.8656 36.1014C15.2559 37.0517 15.6717 37.7305 16.1129 38.1378C16.5711 38.5451 17.1311 38.7487 17.7929 38.7487C18.3529 38.7487 18.8959 38.5536 19.422 38.1633C19.9481 37.7899 20.542 37.1705 21.2038 36.3051C21.4075 36.0336 21.6366 35.8978 21.8911 35.8978ZM9.92737 30.5777C11.251 30.5777 12.4135 30.1705 13.4147 29.3559C14.4329 28.5414 15.2135 27.4129 15.7565 25.9704C16.2995 24.511 16.5711 22.8649 16.5711 21.0322C16.5711 19.0128 16.1468 17.4855 15.2983 16.4503C14.4498 15.3982 13.3553 14.8721 12.0147 14.8721C10.7249 14.8721 9.571 15.2879 8.55281 16.1194C7.55159 16.934 6.77097 18.0625 6.21097 19.5049C5.65096 20.9473 5.37096 22.5849 5.37096 24.4177C5.37096 26.4371 5.79521 27.9729 6.6437 29.025C7.49219 30.0602 8.58675 30.5777 9.92737 30.5777ZM24.3511 33.5814C23.5874 33.5814 22.9596 33.2335 22.4674 32.5378C21.9923 31.825 21.7547 30.9426 21.7547 29.8905C21.7547 28.6177 21.8395 27.4553 22.0092 26.4032C22.1789 25.3341 22.4589 24.2056 22.8492 23.0177C23.0189 22.5086 23.2565 22.1437 23.562 21.9231C23.8674 21.7025 24.3511 21.5922 25.0129 21.5922C25.3862 21.5922 25.6408 21.6516 25.7765 21.7704C25.9293 21.8892 26.0056 22.0674 26.0056 22.3049C26.0056 22.4407 25.9123 22.8989 25.7256 23.6795C25.5559 24.3074 25.4202 24.8759 25.3184 25.385C24.979 27.1668 24.8093 28.3547 24.8093 28.9486C24.8093 29.305 24.8517 29.5596 24.9365 29.7123C25.0214 29.848 25.1571 29.9159 25.3438 29.9159C25.5984 29.9159 25.9123 29.6614 26.2856 29.1523C26.676 28.6432 27.0832 27.871 27.5075 26.8359C27.9487 25.8007 28.3729 24.528 28.7802 23.0177C28.916 22.5086 29.1196 22.1437 29.3911 21.9231C29.6796 21.7025 30.1039 21.5922 30.6639 21.5922C31.0542 21.5922 31.3257 21.6431 31.4784 21.7449C31.6311 21.8298 31.7075 21.9995 31.7075 22.254C31.7075 22.6783 31.4954 23.8407 31.0711 25.7413C30.596 27.9135 30.3584 29.2541 30.3584 29.7632C30.3584 30.0856 30.4263 30.3402 30.562 30.5268C30.6978 30.6965 30.876 30.7814 31.0966 30.7814C31.436 30.7814 31.8348 30.5777 32.293 30.1705C32.7681 29.7462 33.396 29.0674 34.1766 28.1341C34.3803 27.8965 34.6094 27.7777 34.8639 27.7777C35.0845 27.7777 35.2542 27.8795 35.373 28.0832C35.5088 28.2868 35.5766 28.5668 35.5766 28.9232C35.5766 29.602 35.4154 30.128 35.093 30.5014C34.3633 31.4008 33.5742 32.139 32.7257 32.7159C31.8942 33.2929 30.9439 33.5814 29.8748 33.5814C29.0602 33.5814 28.4578 33.2675 28.0675 32.6396C27.6941 32.0117 27.5075 31.1293 27.5075 29.9923C27.219 31.1462 26.7863 32.0371 26.2093 32.665C25.6323 33.2759 25.0129 33.5814 24.3511 33.5814ZM44.8655 27.7777C45.0861 27.7777 45.2558 27.8795 45.3745 28.0832C45.5103 28.2868 45.5782 28.5668 45.5782 28.9232C45.5782 29.602 45.417 30.128 45.0945 30.5014C44.4667 31.265 43.5757 31.9693 42.4218 32.6141C41.2848 33.259 40.063 33.5814 38.7563 33.5814C36.9745 33.5814 35.5914 33.0978 34.6072 32.1305C33.6229 31.1632 33.1308 29.8396 33.1308 28.1595C33.1308 26.9886 33.3769 25.9025 33.869 24.9013C34.3611 23.8831 35.0399 23.0771 35.9054 22.4831C36.7878 21.8892 37.7805 21.5922 38.8836 21.5922C39.8678 21.5922 40.6569 21.8892 41.2509 22.4831C41.8448 23.0601 42.1418 23.8492 42.1418 24.8504C42.1418 26.0213 41.7175 27.031 40.869 27.8795C40.0375 28.7111 38.6205 29.3729 36.6181 29.865C37.0423 30.6456 37.8484 31.0359 39.0363 31.0359C39.7999 31.0359 40.6654 30.7729 41.6327 30.2468C42.6169 29.7038 43.4654 28.9995 44.1782 28.1341C44.3818 27.8965 44.6109 27.7777 44.8655 27.7777ZM38.4508 24.0868C37.823 24.0868 37.2884 24.4516 36.8472 25.1813C36.4229 25.911 36.2108 26.7935 36.2108 27.8286V27.8795C37.212 27.642 38.0011 27.2856 38.5781 26.8104C39.1551 26.3353 39.4436 25.7838 39.4436 25.1559C39.4436 24.8334 39.3502 24.5789 39.1636 24.3922C38.9939 24.1886 38.7563 24.0868 38.4508 24.0868ZM54.8584 27.7777C55.0791 27.7777 55.2487 27.8795 55.3675 28.0832C55.5033 28.2868 55.5712 28.5668 55.5712 28.9232C55.5712 29.602 55.41 30.128 55.0875 30.5014C54.4597 31.265 53.5687 31.9693 52.4148 32.6141C51.2778 33.259 50.056 33.5814 48.7493 33.5814C46.9675 33.5814 45.5844 33.0978 44.6002 32.1305C43.6159 31.1632 43.1238 29.8396 43.1238 28.1595C43.1238 26.9886 43.3698 25.9025 43.862 24.9013C44.3541 23.8831 45.0329 23.0771 45.8984 22.4831C46.7808 21.8892 47.7735 21.5922 48.8766 21.5922C49.8608 21.5922 50.6499 21.8892 51.2439 22.4831C51.8378 23.0601 52.1348 23.8492 52.1348 24.8504C52.1348 26.0213 51.7105 27.031 50.862 27.8795C50.0305 28.7111 48.6135 29.3729 46.6111 29.865C47.0353 30.6456 47.8414 31.0359 49.0293 31.0359C49.7929 31.0359 50.6584 30.7729 51.6257 30.2468C52.6099 29.7038 53.4584 28.9995 54.1712 28.1341C54.3748 27.8965 54.6039 27.7777 54.8584 27.7777ZM48.4438 24.0868C47.816 24.0868 47.2814 24.4516 46.8402 25.1813C46.4159 25.911 46.2038 26.7935 46.2038 27.8286V27.8795C47.205 27.642 47.9941 27.2856 48.5711 26.8104C49.1481 26.3353 49.4366 25.7838 49.4366 25.1559C49.4366 24.8334 49.3432 24.5789 49.1566 24.3922C48.9869 24.1886 48.7493 24.0868 48.4438 24.0868ZM65.952 27.7777C66.1726 27.7777 66.3423 27.8795 66.4611 28.0832C66.5968 28.2868 66.6647 28.5668 66.6647 28.9232C66.6647 29.5511 66.5035 30.0771 66.181 30.5014C65.3835 31.5365 64.3907 32.3511 63.2028 32.945C62.0319 33.539 60.7083 33.836 59.2319 33.836C58.0779 33.836 57.0767 33.6663 56.2282 33.3269C55.3797 32.9705 54.7264 32.4953 54.2682 31.9014C53.827 31.2905 53.6064 30.6117 53.6064 29.865C53.6064 28.745 54.0561 27.7523 54.9555 26.8868C55.8549 26.0213 57.1446 25.1898 58.8246 24.3922L54.65 24.494C54.2767 24.511 53.9882 24.3837 53.7846 24.1122C53.5979 23.8237 53.5046 23.4843 53.5046 23.094C53.5046 22.6868 53.5979 22.3304 53.7846 22.0249C53.9882 21.7025 54.2597 21.5413 54.5991 21.5413C55.3797 21.5413 56.4234 21.6007 57.7301 21.7195C58.0016 21.7364 58.4937 21.7704 59.2064 21.8213C59.9361 21.8722 60.5471 21.8977 61.0392 21.8977C61.2089 21.8977 61.5313 21.8298 62.0065 21.694C62.0913 21.6771 62.2525 21.6346 62.4901 21.5667C62.7447 21.4989 62.9568 21.4649 63.1265 21.4649C63.398 21.4649 63.6186 21.5837 63.7883 21.8213C63.975 22.0589 64.0683 22.4237 64.0683 22.9159C64.0683 23.4589 63.941 23.8831 63.6865 24.1886C63.4319 24.494 63.0331 24.7656 62.4901 25.0031C60.9458 25.665 59.6646 26.3777 58.6464 27.1413C57.6282 27.888 57.1191 28.6347 57.1191 29.3814C57.1191 29.8565 57.3398 30.2468 57.781 30.5523C58.2222 30.8577 58.8755 31.0105 59.741 31.0105C60.6913 31.0105 61.6501 30.7729 62.6174 30.2977C63.6016 29.8226 64.4841 29.1014 65.2647 28.1341C65.4683 27.8965 65.6974 27.7777 65.952 27.7777ZM72.5203 30.6796C72.8936 30.6626 73.1736 30.7983 73.3603 31.0868C73.5639 31.3584 73.6658 31.6978 73.6658 32.105C73.6658 32.5293 73.5639 32.9026 73.3603 33.225C73.1736 33.5475 72.9106 33.7087 72.5712 33.7087C71.9603 33.7087 71.3833 33.7002 70.8403 33.6832C70.3142 33.6663 69.8475 33.6493 69.4403 33.6323C67.879 33.5644 66.776 33.5305 66.1311 33.5305C65.9105 33.5305 65.5881 33.6069 65.1639 33.7596C64.6208 33.9293 64.2475 34.0141 64.0438 34.0141C63.1444 34.0141 62.6947 33.4372 62.6947 32.2832C62.6947 31.5026 62.9747 30.6202 63.5347 29.6359C64.0948 28.6347 64.8245 27.6674 65.7239 26.7341C66.6233 25.8007 67.5566 25.0201 68.5239 24.3922L64.9348 24.494C64.5614 24.511 64.2729 24.3837 64.0693 24.1122C63.8826 23.8237 63.7893 23.4843 63.7893 23.094C63.7893 22.6868 63.8826 22.3304 64.0693 22.0249C64.2729 21.7025 64.5445 21.5413 64.8838 21.5413C65.6305 21.5413 66.5554 21.6007 67.6584 21.7195C67.8451 21.7364 68.2439 21.7704 68.8548 21.8213C69.4827 21.8722 70.0597 21.8977 70.5857 21.8977C70.7554 21.8977 71.0778 21.8298 71.553 21.694C71.6379 21.6771 71.7991 21.6346 72.0366 21.5667C72.2912 21.4989 72.5033 21.4649 72.673 21.4649C72.9445 21.4649 73.1651 21.5837 73.3348 21.8213C73.5215 22.0589 73.6148 22.4237 73.6148 22.9159C73.6148 23.4589 73.4791 23.8916 73.2076 24.214C72.953 24.5365 72.5627 24.825 72.0366 25.0795C71.4427 25.351 70.7469 25.8177 69.9494 26.4795C69.1518 27.1413 68.3966 27.8795 67.6839 28.6941C66.9711 29.4917 66.4451 30.2468 66.1057 30.9596L72.5203 30.6796Z" fill="#442F11"/>
<path d="M85.8473 25.9132C85.8043 26.2384 85.7053 26.525 85.5836 26.7533L87.1046 26.9152L85.8473 25.9132Z" fill="#99671C"/>
<path d="M85.8793 25.8158C85.8362 26.141 85.7373 26.4276 85.6156 26.6559C85.134 27.5593 83.4923 28.2419 81.2286 27.4152C80.9291 27.3058 80.6187 27.17 80.2987 27.0048C79.6589 26.6745 79.1638 26.2848 78.7868 25.8714C77.55 24.5153 77.5856 23.453 77.8309 22.7383C78.0763 22.0235 78.5732 21.4323 79.2994 21.2112C79.5339 21.1398 79.8036 21.0968 80.1146 21.0952C80.6431 21.0924 81.2908 21.209 82.0877 21.5086C82.2386 21.5654 82.3949 21.6287 82.5567 21.699C82.6699 21.7481 82.5934 22.0054 82.712 22.0615C83.1921 22.2887 83.6015 22.5284 83.949 22.7755C84.1041 22.8858 84.4391 22.7928 84.5703 22.9055C85.7356 23.9069 85.9891 24.9866 85.8793 25.8158Z" fill="url(#paint0_linear_29_186)"/>
<path d="M83.8509 19.8938C84.6587 19.3354 85.6699 19.1516 86.3882 19.6857C87.1066 20.2198 86.8035 21.31 85.9621 21.9896C85.1207 22.6692 84.152 22.5661 84.152 22.5661C83.8046 22.319 83.3952 22.0792 82.915 21.8521C82.7964 21.796 82.6805 21.7434 82.5674 21.6943C82.4056 21.624 82.2493 21.5607 82.0983 21.5039C82.0983 21.5039 80.903 20.6403 81.0512 19.6375C81.1995 18.6347 82.0947 18.2311 82.909 18.588C83.7233 18.9449 83.8509 19.8938 83.8509 19.8938Z" fill="white" fill-opacity="0.73"/>
<path d="M82.4753 21.9743C83.0244 23.7542 80.9848 25.9276 78.8064 25.7833M84.5547 22.9439C84.9139 24.9376 83.1393 27.0964 80.9935 27.3043" stroke="#875B19" stroke-width="0.754376" stroke-linecap="round" stroke-linejoin="round"/>
<path d="M77.939 22.8012C77.939 22.8012 77.9591 23.1983 78.2013 23.2656C78.4436 23.333 78.6321 23.1244 78.6321 23.1244" stroke="#875B19" stroke-width="0.251459" stroke-linecap="round" stroke-linejoin="round"/>
<path d="M82.805 22.1965C82.805 22.1965 83.0627 20.4982 83.8704 19.9398M82.805 22.1965C83.2851 22.4236 84.1715 22.6121 84.1715 22.6121M82.805 22.1965C82.6864 22.1403 82.9181 22.2456 82.805 22.1965ZM82.805 22.1965C82.6431 22.1262 82.3878 21.8195 82.0581 21.5973M85.6458 26.6972C85.7675 26.4689 85.8664 26.1822 85.9095 25.8571M85.6458 26.6972L87.1668 26.8591L85.9095 25.8571M85.6458 26.6972C85.1642 27.6005 83.5225 28.2832 81.2588 27.4565C80.9593 27.3471 80.6489 27.2113 80.3289 27.0461C79.6891 26.7158 79.194 26.326 78.8171 25.9127C77.5802 24.5565 77.6158 23.4943 77.8611 22.7795C78.1065 22.0648 78.6034 21.4735 79.3296 21.2525M85.9095 25.8571C86.0193 25.0279 85.7658 23.9482 84.6005 22.9468C84.4693 22.8341 84.1715 22.6121 84.1715 22.6121M83.8704 19.9398C84.6782 19.3814 85.6894 19.1976 86.4077 19.7317C87.1261 20.2658 86.823 21.356 85.9816 22.0356C85.1402 22.7152 84.1715 22.6121 84.1715 22.6121M83.8704 19.9398C83.8704 19.9398 83.7428 18.9908 82.9285 18.634C82.1142 18.2771 81.219 18.6807 81.0708 19.6835C80.9225 20.6862 82.0581 21.5973 82.0581 21.5973M82.0581 21.5973C81.7283 21.3752 80.6733 21.1337 80.1448 21.1365M80.1448 21.1365C80.3485 20.4341 80.3355 19.8135 79.7434 19.1269M80.1448 21.1365C79.8338 21.1381 79.5641 21.1811 79.3296 21.2525M79.3296 21.2525C79.4041 20.6921 79.2788 20.3498 78.7219 19.683" stroke="#442F11" stroke-width="0.628646" stroke-linecap="round" stroke-linejoin="round"/>
<circle cx="79.9917" cy="22.4584" r="0.502917" transform="rotate(15.5359 79.9917 22.4584)" fill="#875B19"/>
<circle cx="79.7434" cy="19.1269" r="0.377188" transform="rotate(15.5359 79.7434 19.1269)" fill="#875B19"/>
<circle cx="78.5723" cy="19.5843" r="0.377188" transform="rotate(15.5359 78.5723 19.5843)" fill="#875B19"/>
<defs>
<linearGradient id="paint0_linear_29_186" x1="81.8284" y1="25.7094" x2="80.9935" y2="27.3043" gradientUnits="userSpaceOnUse">
<stop stop-color="#FFCE4E"/>
<stop offset="1" stop-color="#AE8A43"/>
</linearGradient>
</defs>
</svg>
